<?xml version="1.0" encoding="utf-8"?>
<!-- Generator: Adobe Illustrator 19.2.1, SVG Export Plug-In . SVG Version: 6.00 Build 0)  -->
<svg version="1.1" id="Layer_1" xmlns="http://www.w3.org/2000/svg" xmlns:xlink="http://www.w3.org/1999/xlink" x="0px" y="0px"
	 viewBox="0 0 170.9 23.4" style="enable-background:new 0 0 170.9 23.4;" xml:space="preserve">
<style type="text/css">
	.st0{fill:#CCCCCC;}
</style>
<g transform="matrix( 1, 0, 0, 1, 190.45,210.4) ">
	<g transform="matrix( 1, 0, 0, 1, 0,0) ">
		<g>
			<g id="Layer0_0_FILL">
				<path class="st0" d="M-170.3-207.4c-1.3-1.4-2.9-2.1-4.7-2.1h-15.4v22h7.9v-7.9h7.5c1.8,0,3.4-0.7,4.7-2.1c1.3-1.3,1.9-3,1.9-5
					C-168.4-204.4-169.1-206-170.3-207.4 M-176.8-201.3c-0.4,0.4-0.8,0.6-1.3,0.6h-4.4v-3.6h4.4c0.5,0,0.9,0.2,1.3,0.6
					c0.4,0.4,0.5,0.8,0.5,1.2C-176.3-202-176.5-201.5-176.8-201.3 M-141.9-187.5l-8-22h-10.6l-7.9,22h8.8l0.9-3.5h7.1l0.9,3.5
					H-141.9 M-153.4-197.2h-3.5l1.8-5.3L-153.4-197.2 M-121.8-207.4c-1.3-1.4-2.8-2.1-4.7-2.1h-15.4v22h7.9v-7.9h0.4l5.8,7.9h7.9
					l-5.8-8c1.5-0.1,2.8-0.8,3.8-2c1.3-1.3,2-3,2-5C-119.9-204.4-120.5-206-121.8-207.4 M-128.4-201.3c-0.4,0.4-0.8,0.6-1.3,0.6
					h-4.4v-3.6h4.4c0.5,0,0.9,0.2,1.3,0.6c0.4,0.4,0.6,0.8,0.6,1.2C-127.8-202-128-201.5-128.4-201.3 M-102.3-191l0.9,3.5h8.8
					l-7.9-22H-111l-8,22h8.9l0.8-3.5H-102.3 M-104-197.2h-3.5l1.8-5.3L-104-197.2 M-69.6-198.5c0-3-0.9-5.6-2.6-7.8
					c-1.8-2.2-4.3-3.3-7.8-3.3h-12.6v22h12.6c3.4,0,6-1.1,7.8-3.3C-70.5-192.9-69.6-195.5-69.6-198.5 M-78.6-201.9
					c0.7,1,1,2.1,1,3.4c0,1.3-0.3,2.4-1,3.4c-0.7,1-1.8,1.4-3.4,1.4h-2.6v-9.7h2.6C-80.4-203.3-79.3-202.9-78.6-201.9 M-43.3-198.8
					c-0.2-3.6-1.4-6.5-3.6-8.5c-2.3-2-5.2-3.1-8.8-3.1s-6.5,1.1-8.8,3.4c-2.3,2.2-3.4,5-3.4,8.2c0,3.2,1.2,6,3.5,8.3
					c2.4,2.3,5.2,3.5,8.7,3.5c3.4,0,6.3-1.2,8.7-3.5C-44.6-192.8-43.3-195.6-43.3-198.8 M-54.6-203.4c1.3,0,2.3,0.5,3.1,1.5
					c0.7,1.1,0.8,2.3,0.4,3.4c-0.5,1.2-1.3,2.2-2.5,2.9c-1.2,0.9-2.4,1.4-3.7,1.4c-1.3,0.1-2.3-0.4-3.1-1.5
					c-0.7-1.1-0.9-2.2-0.4-3.4c0.5-1.2,1.3-2.2,2.5-3.1C-57-202.9-55.8-203.3-54.6-203.4 M-19.6-187.5l-7.5-11l7.5-11h-7.9l-3.5,5.2
					l-3.6-5.2h-7.9l7.5,11l-7.5,11h7.9l3.6-5.1l3.5,5.1H-19.6z"/>
			</g>
		</g>
	</g>
</g>
</svg>
