<?xml version="1.0" encoding="utf-8"?>
<!-- Generator: Adobe Illustrator 19.2.1, SVG Export Plug-In . SVG Version: 6.00 Build 0)  -->
<svg version="1.1" id="Layer_1" xmlns="http://www.w3.org/2000/svg" xmlns:xlink="http://www.w3.org/1999/xlink" x="0px" y="0px"
	 viewBox="0 0 171.7 66.8" style="enable-background:new 0 0 171.7 66.8;" xml:space="preserve">
<style type="text/css">
	.st0{fill:#CCCCCC;}
</style>
<g transform="matrix( 1, 0, 0, 1, 0,0) ">
	<g>
		<g id="Layer0_0_FILL">
			<path class="st0" d="M164.2,55.2l7.5-11.1h-8l-3.5,5.2l-3.5-5.2h-8l7.5,11.1l-7.5,11h8l3.5-5.2l3.5,5.2h8L164.2,55.2 M144.4,46.4
				c-2.3-2-5.2-3.1-8.8-3.1s-6.5,1.1-8.8,3.4c-2.3,2.2-3.4,5-3.4,8.2s1.2,6,3.5,8.4c2.4,2.3,5.3,3.5,8.7,3.5c3.4,0,6.3-1.2,8.7-3.5
				s3.6-5.1,3.6-8.4C147.7,51.2,146.6,48.4,144.4,46.4 M139.8,51.8c0.7,1.1,0.8,2.3,0.3,3.5s-1.3,2.2-2.4,2.9
				c-1.2,0.9-2.4,1.3-3.7,1.3c-1.3,0.1-2.3-0.4-3-1.5s-0.9-2.2-0.5-3.4c0.5-1.2,1.3-2.2,2.5-3.1c1.2-0.8,2.5-1.2,3.7-1.3
				C138,50.3,139,50.8,139.8,51.8 M90.8,44.2H80.2l-8,22.1h8.9l0.9-3.5h7l0.9,3.5h8.8L90.8,44.2 M87.3,56.5h-3.5l1.8-5.3L87.3,56.5
				 M121.7,55.2c0-3-0.9-5.6-2.6-7.8c-1.8-2.2-4.4-3.3-7.8-3.3H98.7v22.1h12.6c3.4,0,6-1.1,7.8-3.3
				C120.8,60.8,121.7,58.3,121.7,55.2 M112.6,51.8c0.7,1,1,2.1,1,3.4c0,1.3-0.3,2.4-1,3.4s-1.8,1.4-3.4,1.4h-2.6v-9.7h2.6
				C110.8,50.4,112,50.8,112.6,51.8 M22.9,66.2h8.9l0.8-3.5h7.1l0.9,3.5h8.9l-7.9-22.1H30.8L22.9,66.2 M37.9,56.5h-3.5l1.8-5.3
				L37.9,56.5 M69.4,46.3c-1.3-1.4-2.9-2.1-4.6-2.1H49.4v22.1h7.9v-8h0.5l5.8,8h7.9l-5.8-8c1.5-0.1,2.7-0.8,3.8-2c1.3-1.3,2-3,2-5
				C71.4,49.3,70.7,47.7,69.4,46.3 M62.9,52.5c-0.4,0.4-0.8,0.6-1.3,0.6h-4.4v-3.6h4.4c0.5,0,0.9,0.2,1.3,0.6s0.6,0.8,0.6,1.2
				C63.5,51.8,63.3,52.2,62.9,52.5 M20.9,46.3c-1.3-1.4-2.9-2.1-4.7-2.1H0.8v22.1h7.9v-8h7.5c1.8,0,3.4-0.7,4.7-2.1
				c1.3-1.3,1.9-3,1.9-5C22.9,49.3,22.2,47.7,20.9,46.3 M13.2,49.5c0.5,0,0.9,0.2,1.3,0.6s0.6,0.8,0.6,1.2c0,0.5-0.2,0.9-0.6,1.3
				c-0.4,0.4-0.8,0.6-1.3,0.6H8.8v-3.6L13.2,49.5 M169.3,0.7c-3.4-0.6-7.5-0.8-12.3-0.6c-5.6,0.2-10.2,2.1-13.9,5.8
				c-3.7,3.8-5.5,8.3-5.4,13.5c0,5.5,1.8,10,5.4,13.6c3.6,3.6,8.2,5.6,13.9,5.9c5.4,0,10.1-0.6,14.1-1.6l-5.9-16
				c-0.9,1-2.3,2.2-4.2,3.7c-1.9,1.3-3.8,1.9-5.8,1.8c-2,0-3.4-0.8-4.3-2.2c-1.3-1.5-1.7-3.1-1.1-4.8c0.5-1.7,1.6-3.3,3.4-4.8
				c1.9-1.5,3.7-2.5,5.6-2.9c1.9-0.4,3.3-0.3,4.4,0.4c1,0.6,1.7,1.2,2.2,1.9L169.3,0.7 M134.8,38.4V1.6h-14.6v36.8H134.8
				 M105.4,19.3L96.6,1.6H79v36.8h11.8V20.7L101,38.4h16.1V1.6h-11.8v17.7 M40.9,5.8c-3.8,3.7-5.7,8.3-5.7,13.7s1.9,10.1,5.9,13.9
				c3.9,3.8,8.7,5.7,14.4,5.7c5.6,0,10.4-1.9,14.5-5.8c4-3.8,6-8.5,6-13.9c-0.1-6-2.1-10.7-5.9-14.2c-3.7-3.4-8.6-5.1-14.6-5.1
				C49.5,0.2,44.6,2,40.9,5.8 M47.8,24.8c-1.2-1.8-1.5-3.7-0.7-5.7s2.1-3.6,4.1-5s4.1-2.1,6.2-2.2c2.1-0.1,3.9,0.8,5.1,2.6
				c1.2,1.8,1.4,3.7,0.6,5.7c-0.7,2-2.1,3.7-4.1,5c-1.9,1.4-4,2.2-6.1,2.3C50.8,27.4,49.1,26.5,47.8,24.8 M4.4,22.3
				c2.7,1.7,5.1,2.5,7.2,2.5c2.2,0,3.8,0.2,4.9,0.6c1.2,0.5,1.5,1.3,0.9,2.4c-0.7,1.1-4.9,1.5-12.6,1.1l-3,9.3
				C8.7,39,14,39.1,17.9,38.8c3.9,0.1,7.3-1,10.1-3.4c2.9-2.4,4.2-5.4,4.1-9c0-3.5-1-6.1-3.1-8c-2-1.8-4.4-2.8-7.3-3.1
				c-2.7-0.2-4.6-0.5-5.8-0.9c-1.1-0.3-1.5-1-1.2-2s2.1-1.5,5.3-1.6c3.5,0,6.1,0.1,7.9,0.4l2.6-9.3c-5-0.7-9.6-0.9-14-0.7
				C11.6,0.9,7.6,1.9,4.6,4.3C1.5,6.6,0,9.5,0,13C0,17,1.4,20.1,4.4,22.3z"/>
		</g>
	</g>
</g>
</svg>
