<?xml version="1.0" encoding="utf-8"?>
<!-- Generator: Adobe Illustrator 19.2.1, SVG Export Plug-In . SVG Version: 6.00 Build 0)  -->
<svg version="1.1" id="Layer_1" xmlns="http://www.w3.org/2000/svg" xmlns:xlink="http://www.w3.org/1999/xlink" x="0px" y="0px"
	 viewBox="0 0 171.1 39" style="enable-background:new 0 0 171.1 39;" xml:space="preserve">
<style type="text/css">
	.st0{fill:#CCCCCC;}
</style>
<g transform="matrix( 1, 0, 0, 1, 189.65,167.15) ">
	<g transform="matrix( 1, 0, 0, 1, 0,0) ">
		<g>
			<g id="Layer0_0_FILL">
				<path class="st0" d="M-160.6-149c-2-1.8-4.4-2.8-7.4-3.1c-2.7-0.2-4.6-0.5-5.8-0.9c-1.1-0.3-1.5-1-1.2-2.1
					c0.3-1,2.1-1.5,5.3-1.5c3.5,0,6.1,0.1,7.8,0.4l2.6-9.3c-5-0.7-9.6-0.9-14-0.7c-4.9-0.2-8.9,0.9-11.9,3.2c-3,2.3-4.6,5.2-4.6,8.7
					c0,4,1.4,7.1,4.3,9.3c2.7,1.7,5.1,2.5,7.3,2.5c2.2,0,3.8,0.2,5,0.6c1.2,0.5,1.5,1.3,0.9,2.4c-0.7,1.1-4.9,1.5-12.6,1.1l-3,9.3
					c6.9,0.8,12.2,0.9,16.1,0.6c3.9,0.1,7.3-1,10.2-3.4c2.9-2.4,4.2-5.4,4-9C-157.5-144.4-158.6-147.1-160.6-149 M-113.6-147.8
					c-0.1-6-2.1-10.7-5.9-14.2c-3.7-3.4-8.6-5.1-14.7-5.1c-6,0-10.8,1.9-14.6,5.6c-3.8,3.7-5.6,8.3-5.6,13.7
					c0,5.4,1.9,10.1,5.8,13.9c3.9,3.8,8.7,5.8,14.4,5.8c5.6,0,10.4-1.9,14.5-5.8C-115.7-137.7-113.6-142.3-113.6-147.8
					 M-127.1-152.9c1.2,1.8,1.4,3.7,0.6,5.7c-0.7,2-2.1,3.7-4.1,5c-1.9,1.4-4,2.2-6.2,2.3c-2.1,0.1-3.8-0.8-5.1-2.5
					c-1.2-1.8-1.5-3.7-0.7-5.7c0.8-2,2.2-3.6,4.2-5.1c2-1.4,4.1-2.1,6.1-2.2C-130.1-155.5-128.4-154.7-127.1-152.9 M-72.5-128.9
					v-36.8h-11.8v17.7l-8.8-17.7h-17.7v36.8h11.8v-17.6l10.3,17.6H-72.5 M-54.9-128.9v-36.8h-14.6v36.8H-54.9 M-18.5-130l-5.9-16
					c-0.9,1-2.3,2.2-4.2,3.7c-1.9,1.3-3.8,1.9-5.8,1.8c-2,0-3.4-0.8-4.3-2.2c-1.3-1.5-1.7-3.1-1.1-4.8c0.5-1.7,1.6-3.3,3.4-4.8
					c1.9-1.5,3.7-2.5,5.6-2.9c1.9-0.4,3.3-0.3,4.4,0.3c1,0.6,1.7,1.3,2.2,2l4.1-13.8c-3.4-0.6-7.5-0.8-12.3-0.6
					c-5.6,0.2-10.2,2.1-13.9,5.8c-3.7,3.8-5.5,8.3-5.4,13.5c0,5.5,1.8,10,5.4,13.6c3.6,3.6,8.2,5.6,13.9,5.9
					C-27.2-128.3-22.5-128.9-18.5-130z"/>
			</g>
		</g>
	</g>
</g>
</svg>
