<?xml version="1.0" encoding="utf-8"?><svg id="bottom" image-rendering="auto" baseProfile="basic" version="1.1" x="0px" y="0px" width="200" height="80" xmlns="http://www.w3.org/2000/svg" xmlns:xlink="http://www.w3.org/1999/xlink"><defs><symbol id="Symbol_2" overflow="visible"><path fill="#FFF" d="M0,16.4L6.55,16.4 7.2,13.8 12.45,13.8 13.1,16.4 19.7,16.4 13.8,0 5.9,0 0,16.4 M9.85,5.25L11.15,9.2 8.55,9.2 9.85,5.25"/>
</symbol><linearGradient gradientUnits="userSpaceOnUse" color-interpolation="sRGB" x1="30.95" y1="14.75" x2="0.05" y2="14.75" id="linearGradient"><stop stop-color="#1F2346" stop-opacity="1" offset="0"/><stop stop-color="#1F2346" stop-opacity="0" offset="1"/></linearGradient><linearGradient gradientUnits="userSpaceOnUse" color-interpolation="sRGB" x1="96.625" y1="15.05" x2="112.975" y2="15.55" id="linearGradient1"><stop stop-color="#1F2346" stop-opacity="1" offset="0"/><stop stop-color="#1F2346" stop-opacity="0" offset="1"/></linearGradient></defs><g id="SP_logo" overflow="visible" transform="matrix(1.07 0 0 1.07 19.55 18.15)"><path fill="#1F2346" d="M-18.05,-10.75L-18.05,57.8 162.25,57.8 134.3,-10.75 -18.05,-10.75"/><g style="display:none;"><g id="Symbol_7" transform="matrix(1 0 0 1 110.55 -1.75)"><animateTransform attributeName="transform" additive="replace" type="translate" repeatCount="indefinite" dur="12.85s" keyTimes="0;0.279;0.313;0.319;1" values="110.55,-1.75;110.55,-1.75;111.15,36.55;111.4,30.7;111.4,30.7" keySplines=".25 .5 .5 1;.25 .5 .5 1;.5 0 .75 .5;.1 .1 .9 .9" calcMode="spline"/><animate attributeName="opacity" repeatCount="indefinite" dur="12.85s" keyTimes="0;0.279;0.313;1" values="0;0;1;1" keySplines=".25 .5 .5 1;.25 .5 .5 1;.5 0 .75 .5" calcMode="spline"/><path fill="#FFF" d="M17.05,0L11.15,0 8.55,3.85 5.9,0 0,0 5.55,8.2 0,16.4 5.9,16.4 8.55,12.55 11.15,16.4 17.05,16.4 11.5,8.2 17.05,0"/></g><animate attributeName="display" repeatCount="indefinite" dur="12.85s" keyTimes="0;0.279;1" values="none;inline;inline"/></g><g style="display:none;"><g id="Symbol_6" transform="matrix(1 0 0 1 91.7 -2.4)"><animateTransform attributeName="transform" additive="replace" type="translate" repeatCount="indefinite" dur="12.85s" keyTimes="0;0.262;0.296;0.302;1" values="91.7,-2.4;91.7,-2.4;92.3,35.9;92.55,30.05;92.55,30.05" keySplines=".25 .5 .5 1;.25 .5 .5 1;.5 0 .75 .5;.1 .1 .9 .9" calcMode="spline"/><animate attributeName="opacity" repeatCount="indefinite" dur="12.85s" keyTimes="0;0.262;0.296;1" values="0;0;1;1" keySplines=".25 .5 .5 1;.25 .5 .5 1;.5 0 .75 .5" calcMode="spline"/><path fill="#FFF" d="M18.2,8.6Q18.1,4.6 15.55,2.3 13.05,0 9,0 5.05,0 2.5,2.5 0,4.95 0,8.6 0,12.25 2.6,14.8 5.25,17.4 9,17.4 12.8,17.4 15.5,14.8 18.2,12.25 18.2,8.6 M12.45,8.9Q11.95,10.2 10.6,11.1 9.3,12.05 7.9,12.1 6.45,12.15 5.6,11 4.8,9.75 5.3,8.45 5.8,7.1 7.15,6.2 8.45,5.25 9.9,5.2 11.3,5.15 12.2,6.3 13,7.55 12.45,8.9"/></g><animate attributeName="display" repeatCount="indefinite" dur="12.85s" keyTimes="0;0.262;1" values="none;inline;inline"/></g><g style="display:none;"><g id="Symbol_5" transform="matrix(1 0 0 1 73.3 -1.75)"><animateTransform attributeName="transform" additive="replace" type="translate" repeatCount="indefinite" dur="12.85s" keyTimes="0;0.245;0.279;0.285;1" values="73.3,-1.75;73.3,-1.75;73.9,36.55;74.15,30.7;74.15,30.7" keySplines=".25 .5 .5 1;.25 .5 .5 1;.5 0 .75 .5;.1 .1 .9 .9" calcMode="spline"/><animate attributeName="opacity" repeatCount="indefinite" dur="12.85s" keyTimes="0;0.245;0.279;1" values="0;0;1;1" keySplines=".25 .5 .5 1;.25 .5 .5 1;.5 0 .75 .5" calcMode="spline"/><path fill="#FFF" d="M17.05,8.2Q17.05,4.85 15.1,2.4 13.2,0 9.35,0L0,0 0,16.4 9.35,16.4Q13.2,16.4 15.1,14 17.05,11.6 17.05,8.2 M11.05,8.2Q11.05,9.7 10.35,10.75 9.6,11.8 7.8,11.8L5.9,11.8 5.9,4.6 7.8,4.6Q9.6,4.6 10.35,5.65 11.05,6.7 11.05,8.2"/></g><animate attributeName="display" repeatCount="indefinite" dur="12.85s" keyTimes="0;0.245;1" values="none;inline;inline"/></g><g style="display:none;"><use xlink:href="#Symbol_2" transform="matrix(1 0 0 1 53.6 -1.75)"><animateTransform attributeName="transform" additive="replace" type="translate" repeatCount="indefinite" dur="12.85s" keyTimes="0;0.228;0.262;0.268;1" values="53.6,-1.75;53.6,-1.75;54.2,36.55;54.45,30.7;54.45,30.7" keySplines=".25 .5 .5 1;.25 .5 .5 1;.5 0 .75 .5;.1 .1 .9 .9" calcMode="spline"/><animate attributeName="opacity" repeatCount="indefinite" dur="12.85s" keyTimes="0;0.228;0.262;1" values="0;0;1;1" keySplines=".25 .5 .5 1;.25 .5 .5 1;.5 0 .75 .5" calcMode="spline"/></use><animate attributeName="display" repeatCount="indefinite" dur="12.85s" keyTimes="0;0.228;1" values="none;inline;inline"/></g><g style="display:none;"><g id="Symbol_3" transform="matrix(1 0 0 1 36.55 -1.75)"><animateTransform attributeName="transform" additive="replace" type="translate" repeatCount="indefinite" dur="12.85s" keyTimes="0;0.211;0.245;0.252;1" values="36.55,-1.75;36.55,-1.75;37.15,36.55;37.4,30.7;37.4,30.7" keySplines=".25 .5 .5 1;.25 .5 .5 1;.5 0 .75 .5;.1 .1 .9 .9" calcMode="spline"/><animate attributeName="opacity" repeatCount="indefinite" dur="12.85s" keyTimes="0;0.211;0.245;1" values="0;0;1;1" keySplines=".25 .5 .5 1;.25 .5 .5 1;.5 0 .75 .5" calcMode="spline"/><path fill="#FFF" d="M12.1,10.45Q13.7,10.25 14.95,8.95 16.4,7.4 16.4,5.25 16.4,3.1 14.95,1.55 13.5,0 11.5,0L0,0 0,16.4 5.9,16.4 5.9,10.5 6.2,10.5 10.5,16.4 16.4,16.4 12.1,10.45 M9.2,3.95Q9.7,3.95 10.1,4.3 10.5,4.7 10.5,5.25 10.5,5.8 10.1,6.2 9.7,6.55 9.2,6.55L5.9,6.55 5.9,3.95 9.2,3.95"/></g><animate attributeName="display" repeatCount="indefinite" dur="12.85s" keyTimes="0;0.211;1" values="none;inline;inline"/></g><g style="display:none;"><use xlink:href="#Symbol_2" transform="matrix(1 0 0 1 16.85 -1.75)"><animateTransform attributeName="transform" additive="replace" type="translate" repeatCount="indefinite" dur="12.85s" keyTimes="0;0.195;0.228;0.235;1" values="16.85,-1.75;16.85,-1.75;17.45,36.55;17.7,30.7;17.7,30.7" keySplines=".25 .5 .5 1;.25 .5 .5 1;.5 0 .75 .5;.1 .1 .9 .9" calcMode="spline"/><animate attributeName="opacity" repeatCount="indefinite" dur="12.85s" keyTimes="0;0.195;0.228;1" values="0;0;1;1" keySplines=".25 .5 .5 1;.25 .5 .5 1;.5 0 .75 .5" calcMode="spline"/></use><animate attributeName="display" repeatCount="indefinite" dur="12.85s" keyTimes="0;0.195;1" values="none;inline;inline"/></g><g style="display:none;"><g id="Symbol_1" transform="matrix(1 0 0 1 0.45 -1.75)"><animateTransform attributeName="transform" additive="replace" type="translate" repeatCount="indefinite" dur="12.85s" keyTimes="0;0.178;0.211;0.218;1" values="0.45,-1.75;0.45,-1.75;1.05,36.55;1.3,30.7;1.3,30.7" keySplines=".25 .5 .5 1;.25 .5 .5 1;.5 0 .75 .5;0 0 1 1" calcMode="spline"/><animate attributeName="opacity" repeatCount="indefinite" dur="12.85s" keyTimes="0;0.178;0.211;1" values="0;0;1;1" keySplines=".25 .5 .5 1;.25 .5 .5 1;.5 0 .75 .5" calcMode="spline"/><path fill="#FFF" d="M11.5,10.5Q13.5,10.5 14.95,8.95 16.4,7.4 16.4,5.25 16.4,3.1 14.95,1.55 13.5,0 11.5,0L0,0 0,16.4 5.9,16.4 5.9,10.5 11.5,10.5 M5.9,3.95L9.2,3.95Q9.7,3.95 10.1,4.3 10.5,4.7 10.5,5.25 10.5,5.8 10.1,6.2 9.7,6.55 9.2,6.55L5.9,6.55 5.9,3.95"/></g><animate attributeName="display" repeatCount="indefinite" dur="12.85s" keyTimes="0;0.178;1" values="none;inline;inline"/></g><g style="display:none;"><g id="NIC" transform="matrix(1 0 0 1 -13.35 0)"><animateTransform attributeName="transform" additive="replace" type="translate" repeatCount="indefinite" dur="12.85s" keyTimes="0;0.064;0.166;1" values="-13.35,0;-13.35,0;58.8,0;58.8,0" keySplines=".25 .5 .5 1;.25 .5 .5 1;.1 .1 .9 .9" calcMode="spline"/><path fill="#FFF" d="M64.4,15.8Q63.35,17 61.25,18.5 59.2,19.95 56.95,19.85 54.75,19.8 53.75,18.2 52.3,16.65 52.9,14.7 53.45,12.75 55.4,11.15 57.45,9.45 59.55,9 61.65,8.55 62.8,9.25 63.95,9.95 64.45,10.7L67.45,0.45Q63.75,-0.2 58.3,0.05 52.05,0.2 47.95,4.4 43.8,8.55 43.95,14.4 43.95,20.55 47.95,24.55 51.95,28.5 58.3,28.9 64.35,28.9 68.8,27.7L64.4,15.8"/><path fill="#FFF" d="M41.6,28.5L41.6,1.15 30.65,1.15 30.65,28.5 41.6,28.5"/><path fill="#FFF" d="M19.7,14.3L13.15,1.15 0,1.15 0,28.5 8.75,28.5 8.75,15.4 16.4,28.5 28.45,28.5 28.45,1.15 19.7,1.15 19.7,14.3"/></g><animate attributeName="display" repeatCount="indefinite" dur="12.85s" keyTimes="0;0.064;1" values="none;inline;inline"/></g><g style="display:none;"><g id="fader3" transform="matrix(1 0 0 1 -13.35 -0.5)"><animateTransform attributeName="transform" additive="replace" type="translate" repeatCount="indefinite" dur="12.85s" keyTimes="0;0.064;0.166;1" values="-13.35,-0.5;-13.35,-0.5;-57.1,-0.75;-57.1,-0.75" keySplines=".25 .5 .5 1;.25 .5 .5 1;.1 .1 .9 .9" calcMode="spline"/><path fill="#1F2346" d="M68.7,29.4L68.7,0 0,0 0,29.4 68.7,29.4"/><path fill="url(#linearGradient1)" d="M115.9,29.8L68.7,29.8 68.7,29.4 68.7,0 115.9,0 115.9,29.8"/></g><animate attributeName="display" repeatCount="indefinite" dur="12.85s" keyTimes="0;0.064;0.167;1" values="none;inline;none;none"/></g><g style="display:none;"><g id="S" transform="matrix(1 0 0 1 26 0.65)"><animateTransform attributeName="transform" additive="replace" type="translate" repeatCount="indefinite" dur="12.85s" keyTimes="0;0.064;0.166;1" values="26,0.65;26,0.65;0,0.65;0,0.65" keySplines=".25 .5 .5 1;.25 .5 .5 1;.1 .1 .9 .9" calcMode="spline"/><path fill="#FFF" d="M20.75,7.55L22.7,0.6Q17.25,-0.1 12.25,0.05 6.75,-0.1 3.4,2.45 0,5 0,8.95 -0.05,13.4 3.25,15.85 6.2,17.75 8.65,17.75 11.05,17.75 12.3,18.2 13.7,18.75 13,19.95 12.25,21.15 3.6,20.75L1.4,27.7Q8.95,28.55 13.35,28.1 17.7,28.25 20.9,25.55 24.1,22.85 23.9,18.85 23.9,14.95 21.6,12.9 19.3,10.85 16.1,10.6 13.1,10.35 11.85,9.95 10.6,9.55 10.95,8.45 11.3,7.3 14.9,7.25 18.5,7.25 20.75,7.55"/></g><animate attributeName="display" repeatCount="indefinite" dur="12.85s" keyTimes="0;0.064;1" values="none;inline;inline"/></g><g style="display:none;"><g id="fader2" transform="matrix(1 0 0 1 3.75 -0.25)"><animateTransform attributeName="transform" additive="replace" type="translate" repeatCount="indefinite" dur="12.85s" keyTimes="0;0.064;0.166;1" values="3.75,-0.25;3.75,-0.25;4.9,-0.5;4.9,-0.5" keySplines=".25 .5 .5 1;.25 .5 .5 1;.1 .1 .9 .9" calcMode="spline"/><animate attributeName="opacity" repeatCount="indefinite" dur="12.85s" keyTimes="0;0.064;0.166;1" values="1;1;0;0" keySplines=".25 .5 .5 1;.25 .5 .5 1;.1 .1 .9 .9" calcMode="spline"/><path fill="url(#linearGradient)" d="M30.9,29.2L30.9,0.3 30.9,0 0,0 0,29.55 30.9,29.55 30.9,29.2"/><path fill="#1F2346" d="M51.7,29.2L51.7,0.3 30.9,0.3 30.9,29.2 51.7,29.2"/></g><animate attributeName="display" repeatCount="indefinite" dur="12.85s" keyTimes="0;0.064;0.167;1" values="none;inline;none;none"/></g><g id="O" transform="matrix(-1 -0.017 0.017 -1 56.35 29.3)"><animateTransform attributeName="transform" additive="replace" type="translate" repeatCount="indefinite" dur="12.85s" keyTimes="0;0.064;0.166;1" values="41.406,14.588;41.406,14.588;41.4,14.55;41.4,14.55" keySplines=".1 .1 .9 .9;.25 .5 .5 1;.1 .1 .9 .9" calcMode="spline"/><animateTransform attributeName="transform" additive="sum" type="rotate" repeatCount="indefinite" dur="12.85s" keyTimes="0;0.064;0.166;1" values="-179,0,0;-179,0,0;0,0,0;0,0,0" keySplines=".1 .1 .9 .9;.25 .5 .5 1;.1 .1 .9 .9" calcMode="spline"/><animateTransform attributeName="transform" additive="sum" type="translate" repeatCount="indefinite" dur="12.85s" keyTimes="0;0.064;0.166;1" values="-15.2,-14.45;-15.2,-14.45;-15.15,-14.5;-15.15,-14.5" keySplines=".1 .1 .9 .9;.25 .5 .5 1;.1 .1 .9 .9" calcMode="spline"/><path fill="#FFF" d="M30.35,14.35Q30.15,7.65 25.95,3.85 21.75,0 15.05,0 8.4,0 4.2,4.15 0,8.3 0,14.35 0,20.45 4.35,24.7 8.7,29 15.05,29 21.35,29 25.85,24.7 30.35,20.45 30.35,14.35 M20.8,14.85Q19.95,17.05 17.7,18.55 15.5,20.15 13.15,20.2 10.75,20.3 9.35,18.35 7.95,16.3 8.8,14.1 9.65,11.85 11.9,10.35 14.1,8.8 16.5,8.7 18.85,8.6 20.3,10.55 21.65,12.6 20.8,14.85"/></g><g style="display:none;"><path fill="#FFF" d="M153.8,57.8Q156.003,52.264 157.675,46.575L134.3,-10.75 -18.05,-10.75 -18.05,57.8 153.8,57.8"/><animate attributeName="display" repeatCount="indefinite" dur="12.85s" keyTimes="0;0.968;0.969;1" values="none;inline;none;none"/></g><g style="display:none;"><path fill="#FFF" d="M142.7,57.8Q147.928,41.8 148.85,24.95L134.3,-10.75 -18.05,-10.75 -18.05,57.8 142.7,57.8"/><animate attributeName="display" repeatCount="indefinite" dur="12.85s" keyTimes="0;0.966;0.968;1" values="none;inline;none;none"/></g><g style="display:none;"><path fill="#FFF" d="M-18.05,-10.75L-18.05,57.8 132.125,57.8Q140.627,24.566 131.1,-10.75L-18.05,-10.75"/><animate attributeName="display" repeatCount="indefinite" dur="12.85s" keyTimes="0;0.965;0.966;1" values="none;inline;none;none"/></g><g style="display:none;"><path fill="#FFF" d="M-18.05,-10.75L-18.05,57.8 121.975,57.8Q128.196,23.869 116.15,-10.75L-18.05,-10.75"/><animate attributeName="display" repeatCount="indefinite" dur="12.85s" keyTimes="0;0.964;0.965;1" values="none;inline;none;none"/></g><g style="display:none;"><path fill="#FFF" d="M-18.05,-10.75L-18.05,57.8 112.425,57.8Q116.546,23.209 102.075,-10.75L-18.05,-10.75"/><animate attributeName="display" repeatCount="indefinite" dur="12.85s" keyTimes="0;0.962;0.964;1" values="none;inline;none;none"/></g><g style="display:none;"><path fill="#FFF" d="M-18.05,-10.75L-18.05,57.8 103.2,57.8Q104.98,22.504 87.775,-10.75L-18.05,-10.75"/><animate attributeName="display" repeatCount="indefinite" dur="12.85s" keyTimes="0;0.961;0.962;1" values="none;inline;none;none"/></g><g style="display:none;"><path fill="#FFF" d="M-18.05,-10.75L-18.05,57.8 94.5,57.8Q94.081,21.818 74.175,-10.75L-18.05,-10.75"/><animate attributeName="display" repeatCount="indefinite" dur="12.85s" keyTimes="0;0.96;0.961;1" values="none;inline;none;none"/></g><g style="display:none;"><path fill="#FFF" d="M-18.05,-10.75L-18.05,57.8 86.075,57.8Q83.339,21.073 60.475,-10.75L-18.05,-10.75"/><animate attributeName="display" repeatCount="indefinite" dur="12.85s" keyTimes="0;0.958;0.96;1" values="none;inline;none;none"/></g><g style="display:none;"><path fill="#FFF" d="M-18.05,-10.75L-18.05,57.8 78.075,57.8Q72.963,20.29 46.975,-10.75L-18.05,-10.75"/><animate attributeName="display" repeatCount="indefinite" dur="12.85s" keyTimes="0;0.957;0.958;1" values="none;inline;none;none"/></g><g style="display:none;"><path fill="#FFF" d="M-18.05,-10.75L-18.05,57.8 70.3,57.8Q62.671,19.4 33.125,-10.75L-18.05,-10.75"/><animate attributeName="display" repeatCount="indefinite" dur="12.85s" keyTimes="0;0.956;0.957;1" values="none;inline;none;none"/></g><g style="display:none;"><path fill="#FFF" d="M-18.05,-10.75L-18.05,57.8 62.925,57.8Q52.664,18.387 19.275,-10.75L-18.05,-10.75"/><animate attributeName="display" repeatCount="indefinite" dur="12.85s" keyTimes="0;0.955;0.956;1" values="none;inline;none;none"/></g><g style="display:none;"><path fill="#FFF" d="M-18.05,-10.75L-18.05,57.8 55.7,57.8Q42.532,17.157 4.525,-10.75L-18.05,-10.75"/><animate attributeName="display" repeatCount="indefinite" dur="12.85s" keyTimes="0;0.953;0.955;1" values="none;inline;none;none"/></g><g style="display:none;"><path fill="#FFF" d="M-10,-10.75L-18.05,-10.75 -18.05,57.8 48.95,57.8Q32.858,15.797 -10,-10.75"/><animate attributeName="display" repeatCount="indefinite" dur="12.85s" keyTimes="0;0.952;0.953;1" values="none;inline;none;none"/></g><g style="display:none;"><path fill="#FFF" d="M-18.05,57.8L42.5,57.8Q24.649,17.654 -18.05,-6.5L-18.05,57.8"/><animate attributeName="display" repeatCount="indefinite" dur="12.85s" keyTimes="0;0.951;0.952;1" values="none;inline;none;none"/></g><g style="display:none;"><path fill="#FFF" d="M-18.05,1.5L-18.05,57.8 36.3,57.8Q18.692,22.88 -18.05,1.5"/><animate attributeName="display" repeatCount="indefinite" dur="12.85s" keyTimes="0;0.949;0.951;1" values="none;inline;none;none"/></g><g style="display:none;"><path fill="#FFF" d="M-18.05,9.375L-18.05,57.8 30.075,57.8Q13.106,28.087 -18.05,9.375"/><animate attributeName="display" repeatCount="indefinite" dur="12.85s" keyTimes="0;0.948;0.949;1" values="none;inline;none;none"/></g><g style="display:none;"><path fill="#FFF" d="M-18.05,16.175L-18.05,57.8 24.525,57.8Q8.492,32.536 -18.05,16.175"/><animate attributeName="display" repeatCount="indefinite" dur="12.85s" keyTimes="0;0.947;0.948;1" values="none;inline;none;none"/></g><g style="display:none;"><path fill="#FFF" d="M-18.05,22.6L-18.05,57.8 18.95,57.8Q4.199,36.758 -18.05,22.6"/><animate attributeName="display" repeatCount="indefinite" dur="12.85s" keyTimes="0;0.946;0.947;1" values="none;inline;none;none"/></g><g style="display:none;"><path fill="#FFF" d="M-18.05,28.325L-18.05,57.8 13.8,57.8Q0.509,40.478 -18.05,28.325"/><animate attributeName="display" repeatCount="indefinite" dur="12.85s" keyTimes="0;0.944;0.946;1" values="none;inline;none;none"/></g><g style="display:none;"><path fill="#FFF" d="M-18.05,33.575L-18.05,57.8 8.825,57.8Q-2.841,43.828 -18.05,33.575"/><animate attributeName="display" repeatCount="indefinite" dur="12.85s" keyTimes="0;0.943;0.944;1" values="none;inline;none;none"/></g><g style="display:none;"><path fill="#FFF" d="M-18.05,38.3L-18.05,57.8 4.2,57.8Q-5.785,46.769 -18.05,38.3"/><animate attributeName="display" repeatCount="indefinite" dur="12.85s" keyTimes="0;0.942;0.943;1" values="none;inline;none;none"/></g><g style="display:none;"><path fill="#FFF" d="M-18.05,57.8L-0.025,57.8Q-8.317,49.23 -18.05,42.35L-18.05,57.8"/><animate attributeName="display" repeatCount="indefinite" dur="12.85s" keyTimes="0;0.94;0.942;1" values="none;inline;none;none"/></g><g style="display:none;"><path fill="#FFF" d="M-18.05,57.8L-4.075,57.8Q-10.653,51.455 -18.05,46.125L-18.05,57.8"/><animate attributeName="display" repeatCount="indefinite" dur="12.85s" keyTimes="0;0.939;0.94;1" values="none;inline;none;none"/></g><g style="display:none;"><path fill="#FFF" d="M-18.05,57.8L-7.65,57.8Q-12.642,53.283 -18.05,49.325L-18.05,57.8"/><animate attributeName="display" repeatCount="indefinite" dur="12.85s" keyTimes="0;0.938;0.939;1" values="none;inline;none;none"/></g><g style="display:none;"><path fill="#FFF" d="M-18.05,57.8L-11.15,57.8Q-14.504,54.927 -18.05,52.3L-18.05,57.8"/><animate attributeName="display" repeatCount="indefinite" dur="12.85s" keyTimes="0;0.936;0.938;1" values="none;inline;none;none"/></g><g style="display:none;"><path fill="#FFF" d="M-18.05,57.8L-13.975,57.8Q-15.987,56.17 -18.05,54.625L-18.05,57.8"/><animate attributeName="display" repeatCount="indefinite" dur="12.85s" keyTimes="0;0.935;0.936;1" values="none;inline;none;none"/></g><g style="display:none;"><path fill="#FFF" d="M43.25,15.05Q43.25,14.25 42.65,13.65 42.1,13.05 41.25,13.05 40.45,13.05 39.85,13.65 39.3,14.25 39.3,15.05 39.3,15.9 39.85,16.45 40.45,17.05 41.25,17.05 42.1,17.05 42.65,16.45 43.25,15.9 43.25,15.05"/><animate attributeName="display" repeatCount="indefinite" dur="12.85s" keyTimes="0;0.064;0.065;1" values="none;inline;none;none"/></g><g style="display:none;"><path fill="#FFF" d="M48.5,15.05Q48.5,12.1 46.35,9.95 44.25,7.85 41.25,7.85 38.3,7.85 36.15,9.95 34.05,12.1 34.05,15.05 34.05,18.05 36.15,20.15 38.3,22.3 41.25,22.3 44.25,22.3 46.35,20.15 48.5,18.05 48.5,15.05"/><animate attributeName="display" repeatCount="indefinite" dur="12.85s" keyTimes="0;0.062;0.064;1" values="none;inline;none;none"/></g><g style="display:none;"><path fill="#FFF" d="M53.6,15.05Q53.6,10 49.95,6.35 46.35,2.7 41.2,2.7 36.1,2.7 32.5,6.35 28.9,10 28.9,15.05 28.9,20.15 32.5,23.8 36.1,27.45 41.2,27.45 46.35,27.45 49.95,23.8 53.6,20.15 53.6,15.05"/><animate attributeName="display" repeatCount="indefinite" dur="12.85s" keyTimes="0;0.061;0.062;1" values="none;inline;none;none"/></g><g style="display:none;"><path fill="#FFF" d="M58.65,15.05Q58.65,7.9 53.5,2.8 48.45,-2.35 41.25,-2.35 34.05,-2.35 28.95,2.8 23.9,7.9 23.9,15.05 23.9,22.25 28.95,27.35 34.05,32.5 41.25,32.5 48.45,32.5 53.5,27.35 58.65,22.25 58.65,15.05"/><animate attributeName="display" repeatCount="indefinite" dur="12.85s" keyTimes="0;0.06;0.061;1" values="none;inline;none;none"/></g><g style="display:none;"><path fill="#FFF" d="M57,-0.7Q50.55,-7.25 41.25,-7.25 32.05,-7.25 25.5,-0.7 19,5.85 19,15.05 19,24.25 25.5,30.85 32.05,37.4 41.25,37.4 50.55,37.4 57,30.85 63.6,24.25 63.6,15.05 63.6,5.85 57,-0.7"/><animate attributeName="display" repeatCount="indefinite" dur="12.85s" keyTimes="0;0.058;0.06;1" values="none;inline;none;none"/></g><g style="display:none;"><path fill="#FFF" d="M32.6,-10.75Q26.764,-8.814 22.05,-4.1 14.2,3.85 14.2,15.05 14.2,26.25 22.05,34.2 30.05,42.2 41.25,42.2 52.5,42.2 60.4,34.2 68.4,26.25 68.4,15.05 68.4,3.85 60.4,-4.1 55.745,-8.814 49.925,-10.75L32.6,-10.75"/><animate attributeName="display" repeatCount="indefinite" dur="12.85s" keyTimes="0;0.057;0.058;1" values="none;inline;none;none"/></g><g style="display:none;"><path fill="#FFF" d="M22.5,-10.75Q20.529,-9.279 18.7,-7.45 9.45,1.9 9.45,15.05 9.45,28.15 18.7,37.5 28.05,46.9 41.2,46.9 54.4,46.9 63.65,37.5 73.05,28.15 73.05,15.05 73.05,1.9 63.65,-7.45 61.841,-9.279 59.875,-10.75L22.5,-10.75"/><animate attributeName="display" repeatCount="indefinite" dur="12.85s" keyTimes="0;0.056;0.057;1" values="none;inline;none;none"/></g><g style="display:none;"><path fill="#FFF" d="M15.55,-10.75Q15.5,-10.7 15.45,-10.65 4.85,0.05 4.85,15.05 4.85,30.05 15.45,40.8 26.15,51.5 41.2,51.5 56.3,51.5 66.9,40.8 77.65,30.05 77.65,15.05 77.65,0.05 66.9,-10.65 66.851,-10.7 66.8,-10.75L15.55,-10.75"/><animate attributeName="display" repeatCount="indefinite" dur="12.85s" keyTimes="0;0.054;0.056;1" values="none;inline;none;none"/></g><g style="display:none;"><path fill="#FFF" d="M72.975,-10.75L9.45,-10.75Q0.4,0.298 0.4,15 0.4,31.9 12.3,43.9 24.35,55.95 41.2,55.95 58.2,55.95 70.1,43.9 82.15,31.9 82.15,15 82.15,0.298 72.975,-10.75"/><animate attributeName="display" repeatCount="indefinite" dur="12.85s" keyTimes="0;0.053;0.054;1" values="none;inline;none;none"/></g><g style="display:none;"><path fill="#FFF" d="M78.55,-10.75L3.975,-10.75Q-3.95,0.502 -3.95,15 -3.95,33.65 9.25,47 16.812,54.534 26.075,57.8L56.5,57.8Q65.773,54.534 73.25,47 86.55,33.65 86.55,15 86.55,0.502 78.55,-10.75"/><animate attributeName="display" repeatCount="indefinite" dur="12.85s" keyTimes="0;0.052;0.053;1" values="none;inline;none;none"/></g><g style="display:none;"><path fill="#FFF" d="M83.6,-10.75L-1.15,-10.75Q-8.25,0.697 -8.25,15.05 -8.25,35.45 6.15,50.05 10.75,54.65 15.925,57.8L66.5,57.8Q71.647,54.65 76.2,50.05 90.8,35.45 90.8,15.05 90.8,0.697 83.6,-10.75"/><animate attributeName="display" repeatCount="indefinite" dur="12.85s" keyTimes="0;0.051;0.052;1" values="none;inline;none;none"/></g><g style="display:none;"><path fill="#FFF" d="M88.45,-10.75L-5.975,-10.75Q-12.4,0.844 -12.4,15.05 -12.4,37.15 3.25,53 5.867,55.617 8.65,57.8L73.775,57.8Q76.558,55.617 79.15,53 94.95,37.15 94.95,15.05 94.95,0.844 88.45,-10.75"/><animate attributeName="display" repeatCount="indefinite" dur="12.85s" keyTimes="0;0.049;0.051;1" values="none;inline;none;none"/></g><g style="display:none;"><path fill="#FFF" d="M93.05,-10.75L-10.575,-10.75Q-16.45,0.954 -16.45,15.05 -16.45,38.85 0.4,55.85 1.405,56.855 2.425,57.8L80,57.8Q81.007,56.855 82,55.85 99,38.85 99,15.05 99,0.954 93.05,-10.75"/><animate attributeName="display" repeatCount="indefinite" dur="12.85s" keyTimes="0;0.048;0.049;1" values="none;inline;none;none"/></g><g style="display:none;"><path fill="#FFF" d="M-15,-10.75Q-16.83,-6.773 -18.05,-2.55L-18.05,32.675Q-14.03,46.597 -3.275,57.8L85.575,57.8Q102.9,39.907 102.9,15.05 102.9,1.057 97.4,-10.75L-15,-10.75"/><animate attributeName="display" repeatCount="indefinite" dur="12.85s" keyTimes="0;0.047;0.048;1" values="none;inline;none;none"/></g><g style="display:none;"><path fill="#FFF" d="M101.625,-10.75L-18.05,-10.75 -18.05,43.325Q-14.351,51.005 -8.45,57.8L90.775,57.8Q106.75,39.611 106.75,15.05 106.75,1.115 101.625,-10.75"/><animate attributeName="display" repeatCount="indefinite" dur="12.85s" keyTimes="0;0.045;0.047;1" values="none;inline;none;none"/></g><g style="display:none;"><path fill="#FFF" d="M105.75,-10.75L-18.05,-10.75 -18.05,50.95Q-15.876,54.471 -13.225,57.8L95.675,57.8Q110.55,39.369 110.55,15 110.55,1.169 105.75,-10.75"/><animate attributeName="display" repeatCount="indefinite" dur="12.85s" keyTimes="0;0.044;0.045;1" values="none;inline;none;none"/></g><g style="display:none;"><path fill="#FFF" d="M109.575,-10.75L-18.05,-10.75 -18.05,57.55Q-17.958,57.675 -17.875,57.8L100.25,57.8Q114.1,39.203 114.1,15.05 114.1,1.248 109.575,-10.75"/><animate attributeName="display" repeatCount="indefinite" dur="12.85s" keyTimes="0;0.043;0.044;1" values="none;inline;none;none"/></g><g style="display:none;"><path fill="#FFF" d="M113.35,-10.75L-18.05,-10.75 -18.05,57.8 104.6,57.8Q117.65,39.034 117.65,15.05 117.65,1.291 113.35,-10.75"/><animate attributeName="display" repeatCount="indefinite" dur="12.85s" keyTimes="0;0.042;0.043;1" values="none;inline;none;none"/></g><g style="display:none;"><path fill="#FFF" d="M117.025,-10.75L-18.05,-10.75 -18.05,57.8 108.725,57.8Q121.1,38.875 121.1,15 121.1,1.312 117.025,-10.75"/><animate attributeName="display" repeatCount="indefinite" dur="12.85s" keyTimes="0;0.04;0.042;1" values="none;inline;none;none"/></g><g style="display:none;"><path fill="#FFF" d="M120.45,-10.75L-18.05,-10.75 -18.05,57.8 112.625,57.8Q124.35,38.777 124.35,15.05 124.35,1.373 120.45,-10.75"/><animate attributeName="display" repeatCount="indefinite" dur="12.85s" keyTimes="0;0.039;0.04;1" values="none;inline;none;none"/></g><g style="display:none;"><path fill="#FFF" d="M123.825,-10.75L-18.05,-10.75 -18.05,57.8 116.325,57.8Q127.55,38.645 127.55,15 127.55,1.378 123.825,-10.75"/><animate attributeName="display" repeatCount="indefinite" dur="12.85s" keyTimes="0;0.038;0.039;1" values="none;inline;none;none"/></g><g style="display:none;"><path fill="#FFF" d="M127.075,-10.75L-18.05,-10.75 -18.05,57.8 119.9,57.8Q130.65,38.555 130.65,15 130.65,1.407 127.075,-10.75"/><animate attributeName="display" repeatCount="indefinite" dur="12.85s" keyTimes="0;0.036;0.038;1" values="none;inline;none;none"/></g><g style="display:none;"><path fill="#FFF" d="M130.125,-10.75L-18.05,-10.75 -18.05,57.8 123.275,57.8Q133.6,38.482 133.6,15.05 133.6,1.453 130.125,-10.75"/><animate attributeName="display" repeatCount="indefinite" dur="12.85s" keyTimes="0;0.035;0.036;1" values="none;inline;none;none"/></g><g style="display:none;"><path fill="#FFF" d="M133.1,-10.75L-18.05,-10.75 -18.05,57.8 126.525,57.8Q136.45,38.409 136.45,15.05 136.45,1.478 133.1,-10.75"/><animate attributeName="display" repeatCount="indefinite" dur="12.85s" keyTimes="0;0.034;0.035;1" values="none;inline;none;none"/></g><g style="display:none;"><path fill="#FFF" d="M137.975,-1.75L134.3,-10.75 -18.05,-10.75 -18.05,57.8 129.7,57.8Q139.3,38.345 139.3,15.05 139.3,6.384 137.975,-1.75"/><animate attributeName="display" repeatCount="indefinite" dur="12.85s" keyTimes="0;0.032;0.034;1" values="none;inline;none;none"/></g><g style="display:none;"><path fill="#FFF" d="M134.3,-10.75L-18.05,-10.75 -18.05,57.8 132.6,57.8Q141.9,38.278 141.9,15.05 141.9,11.083 141.625,7.225L134.3,-10.75"/><animate attributeName="display" repeatCount="indefinite" dur="12.85s" keyTimes="0;0.031;0.032;1" values="none;inline;none;none"/></g><g style="display:none;"><path fill="#FFF" d="M134.3,-10.75L-18.05,-10.75 -18.05,57.8 135.4,57.8Q144.45,38.224 144.45,15.05 144.45,14.592 144.45,14.125L134.3,-10.75"/><animate attributeName="display" repeatCount="indefinite" dur="12.85s" keyTimes="0;0.03;0.031;1" values="none;inline;none;none"/></g><g style="display:none;"><path fill="#FFF" d="M138.025,57.8Q145.929,40.207 146.75,19.8L134.3,-10.75 -18.05,-10.75 -18.05,57.8 138.025,57.8"/><animate attributeName="display" repeatCount="indefinite" dur="12.85s" keyTimes="0;0.029;0.03;1" values="none;inline;none;none"/></g><g style="display:none;"><path fill="#FFF" d="M140.625,57.8Q147.356,42.369 148.8,24.825L134.3,-10.75 -18.05,-10.75 -18.05,57.8 140.625,57.8"/><animate attributeName="display" repeatCount="indefinite" dur="12.85s" keyTimes="0;0.027;0.029;1" values="none;inline;none;none"/></g><g style="display:none;"><path fill="#FFF" d="M143.025,57.8Q148.775,44.275 150.575,29.175L134.3,-10.75 -18.05,-10.75 -18.05,57.8 143.025,57.8"/><animate attributeName="display" repeatCount="indefinite" dur="12.85s" keyTimes="0;0.026;0.027;1" values="none;inline;none;none"/></g><g style="display:none;"><path fill="#FFF" d="M145.375,57.8Q150.232,46.059 152.2,33.15L134.3,-10.75 -18.05,-10.75 -18.05,57.8 145.375,57.8"/><animate attributeName="display" repeatCount="indefinite" dur="12.85s" keyTimes="0;0.025;0.026;1" values="none;inline;none;none"/></g><g style="display:none;"><path fill="#FFF" d="M147.425,57.8Q151.567,47.586 153.575,36.525L134.3,-10.75 -18.05,-10.75 -18.05,57.8 147.425,57.8"/><animate attributeName="display" repeatCount="indefinite" dur="12.85s" keyTimes="0;0.023;0.025;1" values="none;inline;none;none"/></g><g style="display:none;"><path fill="#FFF" d="M149.525,57.8Q152.978,49.111 154.925,39.825L134.3,-10.75 -18.05,-10.75 -18.05,57.8 149.525,57.8"/><animate attributeName="display" repeatCount="indefinite" dur="12.85s" keyTimes="0;0.022;0.023;1" values="none;inline;none;none"/></g><g style="display:none;"><path fill="#FFF" d="M151.4,57.8Q154.271,50.444 156.075,42.675L134.3,-10.75 -18.05,-10.75 -18.05,57.8 151.4,57.8"/><animate attributeName="display" repeatCount="indefinite" dur="12.85s" keyTimes="0;0.021;0.022;1" values="none;inline;none;none"/></g><g style="display:none;"><path fill="#FFF" d="M153.275,57.8Q155.594,51.757 157.2,45.425L134.3,-10.75 -18.05,-10.75 -18.05,57.8 153.275,57.8"/><animate attributeName="display" repeatCount="indefinite" dur="12.85s" keyTimes="0;0.019;0.021;1" values="none;inline;none;none"/></g><g style="display:none;"><path fill="#FFF" d="M154.975,57.8Q156.811,52.919 158.2,47.85L134.3,-10.75 -18.05,-10.75 -18.05,57.8 154.975,57.8"/><animate attributeName="display" repeatCount="indefinite" dur="12.85s" keyTimes="0;0.018;0.019;1" values="none;inline;none;none"/></g><g style="display:none;"><path fill="#FFF" d="M156.5,57.8Q157.925,53.963 159.075,50.025L134.3,-10.75 -18.05,-10.75 -18.05,57.8 156.5,57.8"/><animate attributeName="display" repeatCount="indefinite" dur="12.85s" keyTimes="0;0.017;0.018;1" values="none;inline;none;none"/></g><g style="display:none;"><path fill="#FFF" d="M157.9,57.8Q158.96,54.906 159.875,51.95L134.3,-10.75 -18.05,-10.75 -18.05,57.8 157.9,57.8"/><animate attributeName="display" repeatCount="indefinite" dur="12.85s" keyTimes="0;0.016;0.017;1" values="none;inline;none;none"/></g><g style="display:none;"><path fill="#FFF" d="M159.275,57.8Q159.988,55.829 160.625,53.825L134.3,-10.75 -18.05,-10.75 -18.05,57.8 159.275,57.8"/><animate attributeName="display" repeatCount="indefinite" dur="12.85s" keyTimes="0;0.014;0.016;1" values="none;inline;none;none"/></g><g style="display:none;"><path fill="#FFF" d="M160.425,57.8Q160.856,56.593 161.25,55.375L134.3,-10.75 -18.05,-10.75 -18.05,57.8 160.425,57.8"/><animate attributeName="display" repeatCount="indefinite" dur="12.85s" keyTimes="0;0.013;0.014;1" values="none;inline;none;none"/></g><g style="display:none;"><path fill="#FFF" d="M161.625,57.8Q161.771,57.388 161.925,56.975L134.3,-10.75 -18.05,-10.75 -18.05,57.8 161.625,57.8"/><animate attributeName="display" repeatCount="indefinite" dur="12.85s" keyTimes="0;0.012;0.013;1" values="none;inline;none;none"/></g><g><path fill="#FFF" d="M-18.05,-10.75L-18.05,57.8 162.25,57.8 134.3,-10.75 -18.05,-10.75"/><animate attributeName="display" repeatCount="indefinite" dur="12.85s" keyTimes="0;0.012;0.969;1" values="inline;none;inline;inline"/></g></g></svg>