<?xml version="1.0" encoding="utf-8"?>
<!-- Generator: Adobe Illustrator 19.2.1, SVG Export Plug-In . SVG Version: 6.00 Build 0)  -->
<svg version="1.1" id="Layer_1" xmlns="http://www.w3.org/2000/svg" xmlns:xlink="http://www.w3.org/1999/xlink" x="0px" y="0px"
	 viewBox="0 0 52.6 52.6" style="enable-background:new 0 0 52.6 52.6;" xml:space="preserve">
<style type="text/css">
	.st0{fill:#FFB50E;}
	.st1{fill:#FFF17A;}
	.st2{fill:#FFFFFF;}
</style>
<g transform="matrix( 0.1314849853515625, 0, 0, 0.1314849853515625, 90.95,179.15) ">
	<g transform="matrix( 1, 0, 0, 1, 0,0) ">
		<g>
			<g id="Layer4_0_FILL">
				<path d="M-691.7-1362.5v400h400v-400H-691.7z"/>
			</g>
		</g>
	</g>
	<g transform="matrix( 1, 0, 0, 1, 0,0) ">
		<g>
			<g id="Layer3_0_FILL">
				<path class="st0" d="M-499.1-1025.5h16.2l41-325h-98.3L-499.1-1025.5 M-679.8-1085.8l65.3,60.3l28.3,0.1l-93.6-152.1V-1085.8
					 M-679.8-1350.5v44.1l124.5,280.8h32l-90.7-324.9H-679.8 M-367.5-1025.6l63.8-58.9v-90.8l-92.1,149.8L-367.5-1025.6
					 M-303.8-1303.3v-47.2h-64.5l-90.6,324.9h32L-303.8-1303.3z"/>
				<path class="st1" d="M-679.8-1306.4v128.8l93.6,152.1l31-0.1L-679.8-1306.4 M-540.2-1350.5h-73.7l90.7,324.9l24.1,0.1
					L-540.2-1350.5 M-368.2-1350.5h-73.7l-41,325l24-0.1L-368.2-1350.5 M-303.8-1175.3v-128l-123.1,277.7l31,0.1L-303.8-1175.3z"/>
			</g>
		</g>
	</g>
	<g transform="matrix( 1, 0, 0, 1, 0,0) ">
		<g>
			<g id="Layer2_0_FILL">
				<path d="M-329.8-1101.9l-10.8-3.3l0.1-0.8l-3.9,13.6l-6.5-1.8l-0.4-7.9h-27.4v36.2l-267.1,1.7c-1.1,0.2-2.2,0.3-3.3,0.5l-4-22.4
					c-2,0.6-5.6,1.1-10.6,1.7l2.1,10.3c-0.4-0.2-2.6-0.1-6.5,0.3c-0.3-7.9-0.4-13.7-0.5-17.3l-11.2,2v98.1h376v-95.6
					c-2.2,0-4.4,0.2-6.7,0.4l-1.2-9.8l-0.7-0.3l-10.9,4.7l0.9,12.4l-7.5,0.3V-1101.9z"/>
			</g>
		</g>
	</g>
	<g transform="matrix( 1, 0, 0, 1, 0,0) ">
		<g>
			<g id="Layer1_0_FILL">
				<path d="M-360.3-1313.2c-0.1,0-0.1,0.1-0.2,0.1c-1.5,0.8-2.9,1.8-4.2,2.9l0,0c-0.2,0.2-0.3,0.3-0.5,0.4c-0.1,0-0.1,0.1-0.1,0.2
					c-1.5,1.2-3,2.4-4.5,3.7c-0.1,0-0.1,0.1-0.1,0.2l-16,12.8c-1.6,1.3-3.2,2.6-4.8,3.8c-0.1,0-0.1,0.1-0.2,0.1h0
					c-0.4,0.3-0.8,0.7-1.3,1.1c-1.6,1.3-3,2.7-4.3,4.3c-0.8,1.1-1.5,2.2-2,3.4c-0.3,0.6-0.5,1.2-0.8,1.8l0-0.1
					c0,0.1-0.1,0.2-0.1,0.3l-37.8,26.6c0,0-0.1,0-0.1,0.1c-1.1-0.8-2.3-1.6-3.4-2.4c-0.5-0.3-1-0.5-1.5-0.6h-0.1l-73.8-10.9
					c0,0,0-0.1,0-0.1c0,0-0.1-0.1-0.1-0.1c-0.7-2.1-1.5-4.2-2.4-6.3c-0.8-1.9-2.2-4.4-4-7.4c-0.9-0.6-1.4-0.9-1.4-1
					c-0.5-0.3-1-0.6-1.5-0.9c-1.4-0.9-2.9-1.8-4.4-2.6c0,0,0,0,0-0.1c-0.7-0.5-1.4-0.9-2.3-1.2c-0.2-0.1-0.3-0.1-0.5-0.2v0.1h0
					l-0.2-0.2l0.9-2.3l3.6-1.4c0.2-0.8,0.4-1.6,0.5-2.5c0.4-2.1,0.7-4.2,0.9-6.4l-1-1.6c0.3-1.8,0.5-3.7,0.5-5.6
					c-0.6-0.4-1.5-0.9-2.5-1.3c-0.6-1.8-1.8-3.5-3.6-5.2c-2.8-2.5-6.2-3.8-10.3-3.8c-4,0-7.4,1.3-10.2,3.8c-2.5,2.2-3.8,4.9-4.1,7.9
					c0,0,0,0.1,0,0.1c-0.1,0-0.2,0.1-0.3,0.1c-1.1,0.4-2,1.1-2.7,2l0,0c-0.2,2.5-0.3,4.4-0.3,5.7c0,1.6,0.1,2.8,0.3,3.7l0.3,0.6
					c0,0,0.1,0.1,0.1,0c0.8,0.9,1.8,1.5,2.9,1.7c0,0.7,0.2,1.3,0.5,1.9c0,0-0.1,0-0.1,0c-1.7,0.5-3.5,1-5.3,1.5
					c-1.3,0.4-2.6,0.7-3.9,1c-1.2,0.4-2.4,0.9-3.5,1.5l-0.1,0.1l-3.2,8.3c-0.5,1.7-1,3.4-1.5,5.1c-0.2,0.6-0.3,1.2-0.5,1.8
					c-0.3,2.7-0.8,6-1.5,9.9c0,1.7,0.1,3.4,0.5,4.9c0.6,2.5,1.8,4.7,3.5,6.8c-0.1,0-0.1,0.1-0.2,0.1h0h0c-3.1,2-6.1,4.1-9.1,6.2
					c-1.6,1.1-3.3,2.3-4.9,3.4c-3.9,2.8-7.8,5.6-11.8,8.6c-1.8,1.4-3.6,2.8-5.3,4.1c-1.3,1-2.6,2.1-3.9,3.1h0
					c-0.8,0.6-1.2,1.4-1.4,2.4c-0.7,5.7-1.3,11.6-1.8,17.6c-0.3,4.3-0.6,8.8-0.8,13.3c-0.2,4.2-0.4,8.5-0.5,13
					c-0.1,3.2-0.1,6.5-0.2,9.9c-10.4,9.2-19.6,17.8-27.8,25.8c-5.4,5.4-10.3,10.5-14.7,15.4c-1.3,5.2-1.8,10.8-1.5,17
					c-1,1.3-2,2.7-3,4.2c0,0-0.1,0.1-0.1,0.1c-4.4,6.6-6.6,14.7-6.7,24.3c0,9.5,2.2,17.7,6.6,24.6c0,0,0,0,0,0
					c4.1,6.5,8.9,10.1,14.5,11.1l2.5,0.2c0,0,0.1,0,0.1,0h0.1c0.1,0,0.2,0,0.3,0c0.1,0,0.1,0,0.2,0c0.1,0,0.1,0,0.1,0
					c1,0,2.4,0,4.3,0h248.4c0.3,0,0.6-0.1,0.9-0.2c2.2-1.2,4.3-2.5,6.3-4.1v0c10.2-7.6,18.2-16.9,24.1-28.2
					c3.7-6.9,6.7-14.1,8.9-21.6c1.3-4.2,2.3-8.4,3.1-12.8c1.9-9.9,2.7-19.9,2.6-30c0-1.9-0.1-3.8-0.2-5.8l10.2-7.3l0,0
					c0.9-0.7,1.4-1.5,1.5-2.6c0,0,0-0.1,0-0.1c0-0.3,0-0.7,0-1v-0.1c-0.2-1.1-0.6-2.2-1.1-3.3l0,0c-0.3-0.8-0.7-1.6-1.1-2.3v0
					c-0.3-0.7-0.6-1.5-0.9-2.2l0,0c-0.5-1.1-1-2.2-1.6-3.2c-0.5-1-1.1-2-1.6-3c-0.4-0.7-0.8-1.4-1.3-2c-2-3.2-4.2-5.9-6.5-8.3
					c-1.2-1.2-2.4-2.3-3.6-3.3c-3.5-2.8-7.2-4.8-11.2-6.1c0,0-0.1,0-0.1,0c-0.1,0-0.2,0-0.3-0.1c-6.5-1.5-14.4-2.7-23.8-3.5
					c-5-0.4-10.3-0.8-16.1-1l-0.4-7.3c0,0,0-0.1,0-0.2c0-0.4-0.1-0.8-0.3-1.2c-0.1-0.2-0.2-0.4-0.3-0.6c-0.1-0.2-0.3-0.4-0.4-0.6
					l0,0l-0.1,0c-0.6-0.7-1.4-1.1-2.4-1.2h0l0,0.1l-8.3-1.1c-0.1-1.5-0.3-3-0.6-4.5c-0.5-3.1-1.2-6.1-2.1-9.2
					c-1.2-3.9-2-6.5-2.6-7.7h0c1.6-0.8,3.2-1.7,4.8-2.5c5.1-2.7,10.3-5.5,15.4-8.2c5.9-3.2,11.8-6.3,17.7-9.4c0.1,0,0.1,0,0.2,0.1h0
					c1,0.1,2.1,0.1,3.2,0c2.6-0.1,5.1-0.6,7.4-1.5c0,0,0.1,0,0.1,0c0.2-0.1,0.4-0.2,0.6-0.2c0,0,0.1,0,0.1-0.1l0,0l31.8-13.6
					c0,0,0.1,0,0.1,0c3.3-1.2,6.5-3.1,9.4-5.8c1.6-1.5,2.9-3,4-4.7l0,0c0,0,0,0,0.1-0.1c2.8-4.2,4.3-8.9,4.5-14.2
					c0.1-5.8-1.3-11-4.3-15.7v0c0-0.1-0.1-0.1-0.1-0.2c-0.1-0.1-0.1-0.2-0.2-0.3c-0.8-1.3-1.8-2.5-2.9-3.6c0,0,0,0,0-0.1h-0.1
					c0,0,0,0,0,0c-5.2-5.5-11.5-8.4-19-8.8C-351.1-1316.8-356-1315.7-360.3-1313.2 M-330.7-1304c1,1.1,1.8,2.1,2.6,3.3l0-0.1
					c2.5,3.7,3.6,7.9,3.4,12.6c-0.2,6-2.4,11-6.8,15c-2.3,2.1-4.8,3.7-7.6,4.7h-0.1c0,0,0,0,0,0c0,0-0.1,0-0.1,0
					c-2.5,0.8-5.1,1.2-7.9,1c-4.1-0.2-7.8-1.3-11.1-3.5c0,0-0.1,0-0.1,0c-0.2-0.2-0.5-0.3-0.7-0.5c-0.2-0.1-0.3-0.3-0.5-0.4
					c-1-0.8-2-1.7-2.9-2.7c-1-1.1-1.9-2.2-2.6-3.4c-1.2-1.9-2.1-3.9-2.7-6l0.1-0.1c-0.3-1.6-0.5-3.1-0.6-4.6c-0.1-1.5-0.1-2.4,0-2.7
					c-1.5,2.9-2.2,5.7-2,8.3l-24.2,16.6c-0.2-1-0.3-2.1-0.4-3.2l0,0c-0.1-1.1-0.1-2.1,0.1-3.1c0.1-0.9,0.3-1.7,0.5-2.6h0v0v-0.1
					v-0.1c0,0,0,0,0,0c0.2-0.8,0.5-1.6,0.9-2.4c0.7-1.4,1.6-2.7,2.6-3.9c0.1-0.1,0.2-0.3,0.4-0.4l5.9-5.1
					c6.5-5.6,13.3-11.2,20.4-16.8l4.9-3.7c4-2.5,8.4-3.6,13.3-3.3C-339.9-1310.8-334.8-1308.4-330.7-1304 M-362.5-1184.4
					c2.8,0.9,5.3,2.2,7.8,3.9c3.9,2.7,7.3,6.5,10.4,11.4c2.1,3.3,4,6.7,5.5,10.2l-44.9-4.3c-1-6.9-3.9-12.6-8.5-17.3
					c-3.1-3.2-7.1-5.9-11.9-8c-0.2-0.1-0.5-0.2-0.8-0.3c-0.2-0.1-0.4-0.2-0.5-0.3c0.2,0,0.4,0,0.5,0.1c0.1,0,0.1,0,0.1,0h0.2
					c0.3,0,0.5,0,0.8,0C-386.5-1188.2-372.7-1186.6-362.5-1184.4 M-349.3-1138.3c0,0.8,0,1.6,0,2.4l-12.4-0.8
					c-0.2,0-0.5,0.1-0.7,0.2c-0.2,0.2-0.3,0.4-0.3,0.6c0,0.2,0,0.3-0.1,0.5l0,0c-0.1,1.3-0.2,2.7-0.3,4c0,0.3,0.1,0.5,0.3,0.8
					c0.2,0.2,0.4,0.3,0.6,0.3l12.9,0.8c-0.3,6.6-1,13.2-2.4,19.6c0,0-0.1,0-0.1,0l-13.9-0.8c-0.2,0-0.4,0.1-0.6,0.2
					c-0.2,0.1-0.3,0.3-0.4,0.6c-0.1,0.3-0.2,0.6-0.3,0.9c0,0,0,0.1,0,0.1c-0.3,1.1-0.6,2.3-0.9,3.4c0,0.2,0,0.4,0,0.5h0
					c0.1,0.2,0.2,0.3,0.4,0.5c0.2,0.1,0.4,0.2,0.5,0.2l13.8,0.8c-1.6,6.1-3.6,12-6.1,17.7c-0.1,0-0.2,0-0.3-0.1l-14.3-0.7
					c-0.2,0-0.4,0.1-0.6,0.2c-0.2,0.1-0.3,0.3-0.4,0.4c-0.1,0.3-0.2,0.6-0.4,0.8l0,0c-0.1,0.1-0.1,0.3-0.1,0.4l0,0
					c0,0.1-0.1,0.2-0.1,0.3v0c-0.4,0.9-0.9,1.8-1.4,2.7c-0.1,0.2-0.1,0.4-0.1,0.7c0,0.2,0.1,0.4,0.3,0.5h0c0.2,0.2,0.3,0.3,0.6,0.3
					l13.7,0.6l-0.7,1.4c-1,1.9-2,3.7-3.1,5.5c-2,3.3-4.2,6.4-6.6,9.3c-0.2-0.2-0.4-0.2-0.6-0.3l-14-0.2c-0.2,0-0.3,0-0.5,0
					c-0.1,0.1-0.3,0.2-0.4,0.3c-0.8,1-1.6,2-2.4,3c0,0-0.1,0.1-0.1,0.1v0.1c-0.4,0.4-0.7,0.8-1.1,1.1c-0.2,0.2-0.2,0.5-0.3,0.8
					c0,0.3,0.1,0.5,0.4,0.7c0.2,0.2,0.4,0.3,0.6,0.3l12.7,0.2c-3.5,3.4-7.3,6.4-11.5,9.1h-37.8l5.8-5.3l5.9-6.3
					c5.3-6.2,9.7-13,13.3-20.4c0.4-0.7,0.7-1.5,1.1-2.3c3.7-7.6,6.5-15.5,8.5-23.7c0.2-0.8,0.4-1.6,0.6-2.5c2.4-9.9,3.8-20,4.1-30.2
					c0-0.1,0-0.3,0.1-0.5c0.1-3.3,0-6.7-0.2-10l38.8,3.5c0.2,2.2,0.4,4.4,0.5,6.5C-349.3-1139-349.3-1138.6-349.3-1138.3
					L-349.3-1138.3 M-398.2-1272.4c-0.1,1-0.1,1.9,0,2.9v0c0.1,1.5,0.3,2.9,0.7,4.3c0.4,1.7,1.1,3.2,1.9,4.7v0l-66,40.2
					c0-0.1-0.1-0.3-0.1-0.5c-0.3-0.8-0.4-1.6-0.5-2.5c0-0.5,0-0.9,0-1.4c0-0.2,0.1-0.4,0.1-0.6c0.2-1.4,0.8-2.6,1.8-3.7
					c0.5-0.6,1.1-1,1.7-1.4c0,0,0-0.1,0.1-0.1L-398.2-1272.4 M-525.2-1266.9L-525.2-1266.9h-0.1c-4.9-0.3-9.7,0.5-14.3,2.4
					c-1.2,0.5-2.3,1.1-3.5,1.7c-2.1,1-4.2,2.1-6.3,3.1c-1.9,0.9-3.8,1.9-5.7,2.8c-0.3,0.1-1,0.6-2.3,1.3c-1.1-1.8-2.7-4.5-5-8.2
					l4.6,2.8c0.2-3.5,0.1-6.1-0.1-7.7c-0.2-1.6-0.4-3.4-0.7-5.2c-0.2-1.8-0.8-4.2-1.9-7.2l5.7-0.8c0.2,0.2,0.3,0.5,0.5,0.7
					c0.6,0.7,1.3,1.4,2,2c0.6,0.5,1.2,1,1.9,1.5c1.4,1,3,1.9,4.6,2.5c2.3,0.9,4.7,1.4,7.1,1.3c2.6,0,4.9-0.8,6.8-2.4l1.5-2.9
					c1.5,0.3,3,0.9,4.3,1.5c-0.1,1.9,0,4.2,0.2,7L-525.2-1266.9 M-457.8-1236.8l-7,4.8c-0.9,1.3-3.1,7.7-6.6,19.3l-19.4-2.3
					c0.2-0.3,0.4-0.7,0.5-1c2-4,2.9-8.4,2.6-13.2c-0.2-3.9-1.8-7.9-4.9-11.9c0.2-0.1,0.4-0.2,0.6-0.3l0,0L-457.8-1236.8
					 M-497-1247.1c-1,0.1-1.9,0.3-2.7,0.6c-1.3,0.6-2.4,1.4-3.4,2.7c1.4,4.7,2.3,8.7,2.8,11.9c0.3,1.9,0.5,3.5,0.6,5
					c0.1,1.3,0.2,2.4,0.3,3.5c0.1,1.9,0.1,4.2,0.1,6.8c0,0.2,0,0.3,0,0.5h-0.1l-19.6-2.5h-0.2c-0.1-1.8-0.3-3.6-0.5-5.4
					c0-0.2-0.1-0.4-0.1-0.6c-0.1-1.4-0.3-2.8-0.5-4.1c-0.2-1-0.3-2.1-0.6-3.2c-0.3-1.8-0.7-3.7-1.1-5.5c-0.1-0.7-0.3-1.3-0.5-1.9
					c-1.8-6.9-3.8-13.1-6-18.5c0-0.5,0-0.9,0.1-1.3c0.4-1.2,1.4-1.7,3.2-1.6l81.8,11.8c0.5,0.3,0.9,0.7,1.4,1l-10.1,7.1L-497-1247.1
					 M-504.3-1206.9L-504.3-1206.9c-2.5-0.3-5.2-0.6-7.9-0.8h0c0,0-0.1,0-0.1,0h0c-1.1-0.1-2.5-0.2-4-0.3c-1.3-0.1-2.8-0.2-4.5-0.3
					l0.1-4.8l113.3,13.8l0.2,4.7l-6.8-0.2c-1.7,0-3.2,0.7-4.3,2.2v-0.1l-3.6,4.5l-49.6-5.1l0,0c0,0,0,0,0-0.1
					c-0.1-0.1-0.3-0.3-0.4-0.4c-0.1,0-0.1-0.1-0.2-0.2c-1-1-2.1-2-3.3-3c-0.9-0.7-1.8-1.4-2.8-2c-1.7-1.2-3.6-2.2-5.7-3.2
					c-0.1,0-0.1-0.1-0.3-0.1c-3.8-1.6-8.9-3-15.3-4C-501.1-1206.5-502.6-1206.7-504.3-1206.9 M-512.9-1201.9c0.2,0,0.4,0,0.6,0
					c0.7,0,1.4,0.1,2.1,0.1c3.8,0.3,7.2,0.7,10.4,1.2c4.4,0.7,8.3,1.6,11.6,2.8c1.1,0.4,2.1,0.8,3.1,1.2c1,0.6,1.9,1.2,2.9,1.9
					c1.4,1,2.7,2.1,4,3.3c1.1,1,2.1,2.1,3,3.2c0.8,1,1.6,2,2.3,3l0,0c1.7,2.5,3.2,5,4.4,7.7c0.4,0.8,0.7,1.6,1,2.4
					c0.4,1.1,0.9,2.5,1.4,4.2l-55.9-4.8c-2.6-8.7-6.4-15-11.5-18.8c-1.6-1.2-3.3-2.1-5.2-2.8c-2.2,0.6-4.7,1.3-7.3,2.1
					c-11.2,3.8-25.9,10.5-44.1,20.3c-3,1.6-6,3.3-9.2,5c2.4-1.7,4.7-3.4,7-5c12.4-8.6,24.4-15.5,35.9-20.7c4.7-2.1,9.3-3.9,13.8-5.5
					c2.4-0.8,4.7-1.5,6.9-2.2c2.1,0.2,4.1,0.3,6.2,0.4c2.3,0.2,4.5,0.3,6.8,0.5C-519.3-1202.3-516.1-1202.1-512.9-1201.9
					 M-450.7-1210.5c0.1-0.3,0.2-0.6,0.3-0.9l15.3-8c0.1,1.1,0.1,2.1,0.1,3.1c0,1.2-0.1,2.4-0.3,3.6v0.1c-0.1,0.7-0.2,1.4-0.4,2
					l0.1,0c-0.1,0.3-0.2,0.7-0.4,1.2c0,0.1,0,0.1-0.1,0.2l-0.1,0.4c0,0.1-0.1,0.3-0.2,0.6c0,0,0,0.1,0,0.1l-14.4-1.8L-450.7-1210.5
					 M-459.8-1169.5c0-0.1,0-0.2-0.1-0.3c-0.4-1.8-0.8-3.6-1.4-5.3c-0.2-0.6-0.4-1.1-0.6-1.7c-1.3-3.6-3.1-7-5.2-10.2l44.6,4.3
					c2.2,0.6,4.3,1.4,6.3,2.2c5.4,2.3,9.8,5.5,13.1,9.5h0.1c4.6,5.8,6.5,13.4,5.5,22.8l-72.1-6.5c0-1.5,0-2.9-0.1-4.4l9.2-8.9
					c0.3-0.3,0.5-0.6,0.5-0.9l0.1-0.2c0-0.1,0-0.1,0-0.3C-459.8-1169.4-459.8-1169.4-459.8-1169.5 M-429.7-1216.6
					c0-1.7-0.2-3.5-0.5-5.4l6.5-3.4c0.1,0.3,0.2,0.5,0.4,0.8c1,2.5,1.9,5.1,2.6,7.9c0.2,0.9,0.5,1.9,0.6,2.8
					c0.1,0.5,0.2,1.1,0.3,1.7l0,0c0.2,0.9,0.4,2.3,0.6,4.3c0.1,0.6,0.1,1.3,0.2,2.1l-12.1-1.6l0.4-1.2c0.1-0.4,0.2-0.8,0.4-1.2
					c0.2-0.8,0.3-1.6,0.4-2.5c0-0.1,0-0.2,0.1-0.3C-429.7-1213.8-429.6-1215.2-429.7-1216.6 M-548.7-1305.8c0.1,0,0.2-0.1,0.3-0.1
					c6.6-0.6,12.8,0,18.5,1.7c0.3,0.4,0.4,0.7,0.5,0.9c0.3,1.6,0,3.5-0.7,5.6l0,0c-0.1,0.3-0.2,0.6-0.5,0.9
					c-0.7,0.1-1.5,0.1-2.4-0.1c0,0,0-0.1-0.1-0.2l-0.4-1.4c0,0-0.1-0.1-0.1-0.1l-0.3-0.8v0c-0.2-0.5-0.6-0.8-1.1-0.9h0
					c-0.9-0.1-1.8-0.2-2.7-0.3c-0.5,0-1,0.3-1.4,0.9l-0.8,0.9c0,0.1-0.1,0.1-0.1,0.2l-0.5,0.5c-0.4,0.4-1.1,0.6-1.9,0.5
					c-2.3,0.2-4.5,0-6.4-0.5c-0.4-0.1-0.6-1.2-0.8-3.1v-0.1c-0.1-1.2,0-2.6,0.2-4.2c0.1-0.1,0.3-0.2,0.5-0.3
					C-548.9-1305.6-548.8-1305.7-548.7-1305.8 M-542.4-1294.5c0.6-0.1,1.2-0.2,1.8-0.3c0.6-0.1,1.2-0.3,1.8-0.5c0,0,0-0.1,0.1-0.1
					c0.1-0.1,0.2-0.3,0.3-0.4c0.1-0.2,0.3-0.4,0.4-0.6c0.1-0.2,0.2-0.4,0.4-0.6c0.1-0.1,0.2-0.3,0.3-0.4c0,0,0.1-0.1,0.1-0.1
					c0.1,0,0.2,0,0.2-0.1c0.6,0,1.2,0.1,1.7,0.2c0,0.1,0.1,0.2,0,0.3c0.1,0.2,0.2,0.4,0.3,0.7c0.1,0.2,0.1,0.4,0.2,0.7
					c0,0.1,0.1,0.3,0.2,0.6c0,0.2,0.1,0.3,0.1,0.4l0,0.1c0.2,0.1,0.4,0.1,0.7,0.2c0.2,0.1,0.4,0.1,0.7,0.2c0.1,0,0.2,0.1,0.3,0.1
					c0.1,0,0.2,0.1,0.3,0.2c0.2,0.1,0.2,0.2,0.2,0.4c-0.1,0.6-0.2,1-0.2,1.3c0,0.2-0.1,0.5-0.3,0.8c0,0.1-0.1,0.3-0.1,0.4
					c-0.2,0.6-0.4,1.1-0.6,1.6l-0.3,0.8c-0.1,0.1-0.2,0.3-0.5,0.5c-0.2,0.2-0.6,0.4-1.2,0.7c-0.6,0.2-1.2,0.4-1.8,0.5
					c-0.2,0-0.4,0-0.5,0c-0.1,0-0.3,0-0.4,0.1c-0.3,0-0.6,0-1,0c-0.2,0-0.3,0-0.5-0.1l-1.5-0.4c-0.5-0.2-0.9-0.5-1.4-0.8
					c-0.5-0.2-0.9-0.6-1.3-1c-0.2-0.5-0.4-1-0.5-1.5c-0.1-0.2-0.1-0.5-0.2-0.7c-0.1-0.3-0.2-0.6-0.3-0.8c0-0.1,0-0.2,0-0.3
					c0,0,0,0,0-0.1v-0.1c0,0,0-0.1,0-0.2c0-0.1,0-0.2,0-0.4c0.1-0.2,0.2-0.4,0.3-0.5c0.1-0.2,0.4-0.3,1-0.5h0.3
					C-543.1-1294.4-542.8-1294.5-542.4-1294.5 M-537.7-1170.6c0.3,0.4,0.5,0.8,0.8,1.2c4,6.6,6.2,14.2,6.7,22.8
					c0.1,1.4,0.1,2.7,0,4.2c0,1,0,2.1,0,3.1v0.1c-0.4,7-1.7,13.4-4,19.3c-1,2.5-2.2,4.9-3.5,7.1c-0.5,0.8-1,1.6-1.5,2.4
					c-0.3,0.5-0.6,0.9-1,1.3c-0.3,0.5-0.7,1-1.1,1.5c-5.7,7.3-12.1,11-19.4,11.1c-0.1,0-0.1,0-0.2,0c-7.1,0-13.2-3.5-18-10.6
					c-0.1-0.2-0.2-0.3-0.3-0.5c-0.3-0.5-0.6-0.9-1-1.5c-3.7-6-5.8-13-6.5-20.9c-0.1-1.1-0.2-2.2-0.3-3.4c0-0.8,0-1.6,0-2.4l4.5-3.2
					c-0.1,1.8-0.1,3.5,0,5.1c0.1,1.1,0.2,2.2,0.3,3.3l9,0.3c0.4,2.2,0.9,4.4,1.5,6.4l-9.3-0.3c0.3,1.2,0.7,2.4,1,3.5l9.5,0.3
					c0.6,1.5,1.4,2.9,2.2,4.3c2.4,4,5.2,6.8,8.3,8.5c0.5,0.3,1,0.5,1.5,0.8c-4.9,1.1-8.9,0.9-11.9-0.6c4.6,3.4,10,3.9,16,1.6l0,0
					c0.6-0.3,1.2-0.6,1.7-1c0.4-0.2,0.8-0.5,1.2-0.8c0.1,0,0.1-0.1,0.2-0.1c2.3-1.7,4.5-4,6.5-6.8c4.8-6.8,7.5-15,8-24.7
					c0,0,0-0.1,0-0.1v0c0.1-1.1,0.1-2.1,0.1-3.2c0-1.3-0.1-2.6-0.2-3.9c-0.5-6.7-2.2-12.6-5.3-17.8c-0.5-0.7-0.9-1.5-1.4-2.1
					L-537.7-1170.6 M-594.9-1130.3c0.1,5.5,0.7,9.6,1.7,12.3c-3.6,2.4-8.7,5.8-15.3,10.3c-3.2,2.2-6.7,4.6-10.5,7.2
					c-0.6-0.8-1.1-1.6-1.7-2.3c-1.8-2.3-3.7-4-5.8-5.2L-594.9-1130.3 M-599.7-1102.1l0.2,0c0.3,0.7,0.7,1.3,1.1,1.8l0.8,0.8
					c0.5,0.5,1,0.9,1.5,1.3l-10.6,5.3l-0.7-4.4L-599.7-1102.1C-599.7-1102.1-599.7-1102.1-599.7-1102.1 M-606.4-1081.8
					c2.2,0,4.1,0.8,5.7,2.5c0.1,0.1,0.1,0.1,0.2,0.1c0.5,0.6,1,1.3,1.5,2.1c1.7,3,2.5,6.5,2.3,10.6c0,0.4,0,0.8-0.1,1.2
					c-0.2,2.7-0.8,5.2-1.8,7.5c-0.4,1-0.9,1.9-1.4,2.8c-0.2,0.3-0.4,0.6-0.7,1c-0.1,0.2-0.3,0.3-0.4,0.5c-0.1,0.2-0.3,0.4-0.5,0.6
					c-2.3,2.8-4.8,4.3-7.7,4.3c0,0-0.1,0-0.1,0c-2.8,0-5.1-1.4-6.9-4.1c0,0-0.1-0.1-0.1-0.2c-0.1-0.2-0.2-0.4-0.3-0.6
					c-1.4-2.3-2.1-5-2.3-8.1c0-0.4,0-0.9,0-1.4c0-0.7,0-1.5,0.1-2.3c0-0.4,0.1-0.8,0.1-1.2c0.1-0.9,0.3-1.9,0.5-2.8
					c0.7-2.9,1.9-5.5,3.7-7.8c1.6-2.2,3.4-3.6,5.3-4.3c0.6-0.1,1.3-0.3,2-0.5C-606.9-1081.7-606.6-1081.8-606.4-1081.8
					 M-577.5-1088.9c0.8-0.2,1.6-0.4,2.5-0.6c0.3,0,0.7,0,1,0c2.7,0,5,1.1,6.9,3.2c0.1,0.1,0.1,0.1,0.2,0.1c0.7,0.8,1.3,1.6,1.8,2.7
					c2,3.6,2.9,7.9,2.5,12.8c0,0.5,0,1-0.1,1.5c-0.4,3.4-1.2,6.4-2.4,9.2c-0.5,1.2-1.2,2.3-1.8,3.4c-0.3,0.4-0.5,0.8-0.8,1.1
					c-0.2,0.2-0.3,0.4-0.5,0.7c-0.2,0.2-0.4,0.5-0.5,0.7c-2.9,3.5-6.1,5.2-9.5,5.3c0,0-0.1,0-0.1,0c-3.4,0-6.2-1.7-8.4-5
					c0-0.1-0.1-0.2-0.1-0.3c-0.1-0.2-0.3-0.5-0.4-0.7c-1.6-2.9-2.4-6.2-2.5-10c0-0.5,0-1,0-1.6c0.1-0.9,0.1-1.8,0.3-2.8
					c0-0.5,0.1-1,0.1-1.5c0.2-1.1,0.4-2.2,0.7-3.3c0.9-3.6,2.5-6.8,4.7-9.6C-582-1086.2-579.8-1088-577.5-1088.9 M-659.4-1084.9
					C-659.4-1084.9-659.4-1084.9-659.4-1084.9l3.5-2.6c-0.9,2.7-1.4,5.7-1.5,8.9c-0.1,1.3-0.1,2.5,0,3.6c0,0.7,0.1,1.4,0.2,2.1
					l5.8,0.2c0.2,1.5,0.6,2.9,1,4.2l-6.1-0.2c0.2,0.8,0.4,1.5,0.7,2.3l6.3,0.2c0.4,1,0.9,1.9,1.4,2.8c1.8,3,3.9,5,6.4,6
					c-3.2,0.7-5.8,0.6-7.8-0.3c3,2.2,6.5,2.5,10.5,1c0.4-0.2,0.7-0.4,1.1-0.6c0.3-0.2,0.6-0.4,0.8-0.6c1.5-1.1,2.9-2.6,4.3-4.5
					c3.2-4.4,4.9-9.8,5.2-16.1v0c0.4-6.3-0.8-11.7-3.5-16.2c-1.7-2.8-3.7-4.8-6-5.8l4.2-2.9c0.8,0.6,1.5,1.2,2.2,1.9
					c0.1,0.1,0.1,0.2,0.1,0.2c1,1,1.9,2.2,2.7,3.6c3.3,5.4,4.7,11.9,4.3,19.5c-0.3,4.5-1.1,8.7-2.6,12.4c-0.6,1.6-1.4,3.2-2.3,4.6
					c-0.3,0.5-0.6,1.1-1,1.5c-0.2,0.3-0.4,0.6-0.6,0.9c-3.8,5.3-8.2,8-13.2,8.1c0,0-0.1,0-0.2,0c-4.6,0-8.5-2.2-11.6-6.8
					c-0.3-0.4-0.5-0.8-0.8-1.3c-2.4-3.9-3.8-8.4-4.3-13.6c-0.1-0.7-0.1-1.4-0.1-2.1c0-1.2,0-2.5,0-3.8
					C-660.1-1080.6-659.8-1082.8-659.4-1084.9 M-564.6-1048.3c8-5.6,14.9-12.8,20.8-21.5c7.1-10.6,12.5-21.8,16.2-33.8
					c0.5-1.4,0.9-2.7,1.3-4.2c2.9-10.3,4.7-20.8,5.5-31.6c0-0.3,0.1-0.7,0.1-1c0.1-2.1,0.3-4.1,0.4-6.2c0.2-4.8,0.3-9.5,0.3-14.3
					l46.7,3v13.9l-13.4-0.8c-0.3,0-0.6,0.1-0.8,0.3c-0.2,0.2-0.3,0.5-0.4,0.8l-0.3,4.4c0,0,0,0.1,0,0.1c0,0.3,0.1,0.5,0.3,0.7
					c0.2,0.2,0.4,0.3,0.8,0.3l13.6,0.9c-0.3,6.8-1,13.6-2.2,20.3c0,0-0.1,0-0.1,0l-13.2-0.8c-0.3,0-0.5,0-0.8,0.2
					c-0.2,0.2-0.3,0.4-0.4,0.7l-0.9,4.4c0,0.2,0,0.4,0,0.6c0.1,0.2,0.2,0.4,0.4,0.5c0.2,0.2,0.4,0.2,0.6,0.3l13.1,0.8
					c-0.2,1.1-0.5,2.3-0.7,3.4c-1.2,5.7-2.9,11.3-4.9,16.8c-0.1,0-0.2,0-0.4-0.1l-13.8-0.7c-0.2,0-0.5,0-0.6,0.2
					c-0.2,0.1-0.3,0.3-0.5,0.5l-1.9,4.3c-0.1,0.2-0.1,0.5,0,0.7c0.1,0.2,0.2,0.4,0.4,0.6c0.2,0.1,0.4,0.2,0.6,0.2l13.4,0.7
					c-0.1,0.2-0.3,0.5-0.4,0.8c-1.4,3-2.9,5.9-4.5,8.8c-1.7,3.1-3.7,6.1-5.9,8.8c-0.2-0.1-0.4-0.2-0.6-0.2l-14.1-0.3
					c-0.2,0-0.3,0-0.5,0.1c-0.1,0.1-0.3,0.2-0.4,0.3l-3.5,4.3c-0.2,0.2-0.3,0.5-0.3,0.8c0,0.3,0.1,0.5,0.3,0.7
					c0.2,0.2,0.5,0.3,0.8,0.3l12.8,0.2c-1.9,1.9-3.9,3.6-6,5.1c-3,2.2-6.1,4.1-9.5,5.7H-564.6 M-574.5-1084c-0.2,0-0.5,0-0.7-0.1
					c-2.6,0-5.1,1.5-7.3,4.3c-0.7,1-1.4,2-1.9,3.1c-0.9,1.8-1.5,3.8-1.8,5.9c0,0.5-0.1,0.9-0.2,1.3c-0.1,0.8-0.1,1.6-0.1,2.3
					c0,0.5,0,0.9,0,1.4l3.8,0.1c0.1,1,0.2,1.9,0.5,2.8l-3.9-0.2c0.1,0.5,0.2,1,0.4,1.4l4,0.1c0.2,0.6,0.5,1.3,0.8,1.8
					c0.9,1.7,2.1,2.9,3.3,3.6c0.2,0.1,0.4,0.2,0.6,0.3c-0.2,0-0.4,0.1-0.6,0.1c-1.8,0.3-3.3,0.2-4.4-0.3c1.9,1.4,4.1,1.7,6.7,0.7
					c0.3-0.1,0.5-0.3,0.8-0.4c0.2-0.1,0.4-0.2,0.6-0.3c0,0,0-0.1,0-0.1c1-0.7,2-1.7,2.9-2.9c2.2-2.9,3.5-6.3,4-10.4
					c0.1-0.4,0.1-0.9,0.1-1.3c0.2-3.5-0.4-6.5-1.8-9.1c-1.2-2.2-2.7-3.6-4.5-4.1C-573.8-1083.9-574.1-1084-574.5-1084
					 M-605.9-1077.2c-0.3-0.1-0.6-0.1-0.9-0.2c-0.2,0-0.3,0-0.5,0c-2.2,0-4.1,1.2-5.9,3.5c-0.6,0.8-1.1,1.7-1.5,2.6
					c-0.7,1.5-1.2,3.1-1.4,4.8c0,0.4-0.1,0.7-0.1,1.1c-0.1,0.7-0.1,1.3-0.1,2c0,0.4,0,0.7,0,1.1l3.1,0.1c0.1,0.8,0.2,1.5,0.4,2.2
					l-3.2-0.1c0.1,0.4,0.2,0.8,0.3,1.2l3.3,0c0.2,0.5,0.5,1,0.7,1.5c0.8,1.4,1.7,2.4,2.8,3c0.2,0.1,0.3,0.1,0.5,0.2
					c-0.2,0-0.3,0.1-0.5,0.1c-1.5,0.3-2.6,0.2-3.5-0.3c1.5,1.2,3.4,1.4,5.5,0.5c0.2-0.1,0.4-0.2,0.6-0.3c0.1-0.1,0.3-0.1,0.4-0.2
					c0,0,0,0,0-0.1c0.8-0.6,1.6-1.4,2.3-2.4c1.8-2.3,2.8-5.2,3.1-8.5c0-0.4,0-0.7,0-1.1c0.1-2.8-0.5-5.3-1.7-7.4
					C-603.1-1075.6-604.4-1076.7-605.9-1077.2 M-457.9-1158c0.5-0.5,0.8-1.2,0.8-2c0-0.7-0.3-1.4-0.8-1.9c-0.5-0.5-1.2-0.8-2-0.8
					c-0.7,0-1.4,0.3-1.9,0.8c-0.5,0.6-0.8,1.2-0.8,1.9c0,0.8,0.3,1.4,0.8,2l0,0c0.5,0.5,1.2,0.8,1.9,0.8
					C-459.1-1157.1-458.5-1157.4-457.9-1158L-457.9-1158 M-441-1160.7c-0.7,0-1.4,0.3-2,0.8c-0.5,0.6-0.8,1.2-0.9,2
					c0,0.8,0.3,1.4,0.9,1.9l0,0c0.6,0.5,1.2,0.8,2,0.8c0.8,0,1.4-0.2,1.9-0.8h0c0.5-0.5,0.8-1.2,0.8-1.9c0-0.7-0.3-1.4-0.9-2h0
					C-439.6-1160.4-440.2-1160.7-441-1160.7 M-425-1156.1c0,0.8,0.3,1.4,0.9,2c0.5,0.5,1.2,0.8,1.9,0.8c0.8,0,1.4-0.3,1.9-0.8h0
					c0.5-0.5,0.8-1.2,0.8-2c0-0.8-0.3-1.4-0.8-1.9h0c-0.5-0.5-1.2-0.8-2-0.8c-0.8,0-1.4,0.3-1.9,0.8
					C-424.7-1157.5-424.9-1156.8-425-1156.1 M-407.2-1152.3L-407.2-1152.3c0.6,0.5,1.2,0.8,2,0.8c0.8,0,1.4-0.3,2-0.8v0
					c0.6-0.5,0.8-1.2,0.8-2c0-0.7-0.3-1.4-0.8-1.9l0,0c-0.5-0.5-1.2-0.8-2-0.9c-0.7,0-1.4,0.3-2,0.9c-0.5,0.5-0.8,1.2-0.8,1.9
					C-408-1153.5-407.7-1152.8-407.2-1152.3 M-511.2-1225.1c-0.2,0.1-0.4,0.3-0.6,0.5c-0.5,0.6-0.7,1.2-0.6,2c0,0.5,0.1,0.9,0.3,1.3
					c0.1,0.2,0.3,0.5,0.5,0.7c0.1,0.1,0.1,0.2,0.2,0.3c0.1,0.1,0.2,0.2,0.4,0.3c0.4,0.2,0.7,0.3,1.1,0.3c0.7,0,1.3-0.3,1.8-0.8
					c0.5-0.5,0.7-1.2,0.6-2c0-0.8-0.2-1.4-0.8-1.9c-0.5-0.5-1.1-0.8-1.8-0.8C-510.5-1225.4-510.9-1225.3-511.2-1225.1 M-512.1-1241
					c-0.5,0-1,0.2-1.4,0.6c-0.1,0.1-0.2,0.2-0.3,0.3c-0.5,0.6-0.7,1.2-0.7,2c0,0,0,0.1,0,0.1c0.1,0.7,0.3,1.4,0.8,1.8
					c0.5,0.5,1.1,0.8,1.8,0.8c0.1,0,0.3,0,0.4,0c0.5-0.1,1-0.4,1.4-0.8h0c0.5-0.5,0.7-1.2,0.6-2c0-0.7-0.3-1.4-0.8-1.9
					c0-0.1-0.1-0.2-0.2-0.3l0,0C-510.9-1240.8-511.5-1241-512.1-1241 M-513.5-1252.3c0-0.1,0-0.1,0-0.2c0-0.8-0.3-1.4-0.8-1.9
					c-0.5-0.5-1-0.8-1.8-0.8c-0.7,0-1.2,0.3-1.7,0.8c-0.5,0.6-0.7,1.2-0.7,2c0,0.8,0.3,1.4,0.8,1.9c0.5,0.5,1.1,0.8,1.8,0.8
					c0.3,0,0.5,0,0.7-0.1c0.4-0.1,0.7-0.4,1-0.7C-513.8-1251.1-513.5-1251.6-513.5-1252.3 M-334.4-1303.2c0.2,0.1,0.5,0.2,0.7,0.3
					c-1.2-1.3-2.8-2.5-4.9-3.4c-0.4-0.2-0.8-0.3-1.1-0.5c-1.5-0.5-3.2-0.8-5-0.9c-4.9-0.2-9.1,1.4-12.8,4.7
					c-3.6,3.3-5.4,7.4-5.6,12.3c0,1.8,0.1,3.4,0.6,5v0c0.5,1.8,1.2,3.4,2.1,5c0,0,0.1,0,0.1,0.1c0,0,0,0.1,0,0.1
					c0.6,0.9,1.3,1.7,2,2.5l0,0c0.2,0.3,0.5,0.5,0.7,0.8l0,0c1.3,1.2,2.6,2.2,4.1,3v0.1c2.3,1.2,4.8,1.9,7.6,2h0.1
					c4.9,0.2,9.2-1.3,12.8-4.7c2.3-2.1,3.6-4,3.9-5.6l-20.8,6.2c-1.2-0.4-2.3-1-3.3-1.8l25.8-12.1c0,0.2,0.1,0,0-0.5
					c0-2.4-0.5-4.1-1.4-5.3l-27,15.5c-1.4-1.6-2.4-3.4-3-5.3l19.9-18.3C-337.8-1304.3-336.3-1303.9-334.4-1303.2z"/>
				<path class="st2" d="M-543.9-1069.7c-5.8,8.7-12.7,15.8-20.8,21.5h47.5c3.3-1.6,6.5-3.5,9.5-5.7c2.1-1.5,4.1-3.3,6-5.1
					l-12.8-0.2c-0.3,0-0.5-0.1-0.8-0.3c-0.2-0.2-0.3-0.4-0.3-0.7c0-0.3,0.1-0.5,0.3-0.8l3.5-4.3c0.1-0.1,0.3-0.3,0.4-0.3
					c0.2-0.1,0.3-0.1,0.5-0.1l14.1,0.3c0.3,0,0.5,0.1,0.6,0.2c2.2-2.8,4.1-5.7,5.9-8.8c1.6-2.9,3.1-5.9,4.5-8.8
					c0.1-0.3,0.3-0.5,0.4-0.8l-13.4-0.7c-0.2,0-0.5-0.1-0.6-0.2c-0.2-0.2-0.3-0.4-0.4-0.6c-0.1-0.2-0.1-0.5,0-0.7l1.9-4.3
					c0.1-0.2,0.3-0.4,0.5-0.5c0.2-0.1,0.4-0.2,0.6-0.2l13.8,0.7c0.1,0,0.3,0,0.4,0.1c2.1-5.4,3.7-11,4.9-16.8
					c0.2-1.1,0.5-2.3,0.7-3.4l-13.1-0.8c-0.2,0-0.4-0.1-0.6-0.3c-0.2-0.1-0.3-0.3-0.4-0.5c-0.1-0.2-0.1-0.4,0-0.6l0.9-4.4
					c0.1-0.3,0.2-0.5,0.4-0.7c0.2-0.2,0.5-0.2,0.8-0.2l13.2,0.8c0,0,0.1,0,0.1,0c1.1-6.7,1.9-13.5,2.2-20.3l-13.6-0.9
					c-0.3,0-0.6-0.1-0.8-0.3c-0.2-0.2-0.3-0.4-0.3-0.7c0,0,0-0.1,0-0.1l0.3-4.4c0-0.3,0.1-0.5,0.4-0.8c0.2-0.2,0.5-0.3,0.8-0.3
					l13.4,0.8v-13.9l-46.7-3c0,4.8-0.1,9.6-0.3,14.3c-0.1,2.1-0.2,4.1-0.4,6.2c0,0.4-0.1,0.7-0.1,1c-0.8,10.8-2.6,21.3-5.5,31.6
					c-0.4,1.4-0.8,2.8-1.3,4.2C-531.3-1091.6-536.7-1080.3-543.9-1069.7 M-659.4-1085C-659.4-1084.9-659.4-1084.9-659.4-1085
					c-0.4,2.1-0.7,4.3-0.8,6.6c-0.1,1.3-0.1,2.5,0,3.8c0,0.7,0,1.5,0.1,2.1c0.4,5.1,1.9,9.6,4.3,13.6c0.3,0.5,0.5,0.9,0.8,1.3
					c3.2,4.5,7,6.8,11.6,6.8c0.1,0,0.1,0,0.2,0c5,0,9.4-2.7,13.2-8.1c0.2-0.3,0.4-0.6,0.6-0.9c0.3-0.5,0.6-1,1-1.5
					c0.9-1.4,1.6-3,2.3-4.6c1.5-3.7,2.3-7.9,2.6-12.4c0.4-7.6-1.1-14.1-4.3-19.5c-0.8-1.4-1.7-2.6-2.7-3.6c0,0-0.1-0.1-0.1-0.2
					c-0.7-0.7-1.4-1.3-2.2-1.9l-4.2,2.9c2.3,1,4.3,3,6,5.8c2.7,4.5,3.8,9.9,3.5,16.2v0c-0.3,6.3-2,11.7-5.2,16.1
					c-1.3,1.9-2.7,3.4-4.3,4.5c-0.3,0.2-0.6,0.4-0.8,0.6c-0.4,0.2-0.7,0.4-1.1,0.6c-4,1.5-7.4,1.2-10.5-1c1.9,1,4.5,1.1,7.8,0.3
					c-2.5-1-4.6-3-6.4-6c-0.5-0.9-1-1.8-1.4-2.8l-6.3-0.2c-0.3-0.7-0.5-1.5-0.7-2.3l6.1,0.2c-0.4-1.3-0.8-2.7-1-4.2l-5.8-0.2
					c-0.1-0.7-0.1-1.4-0.2-2.1c-0.1-1.2-0.1-2.4,0-3.6c0.2-3.2,0.7-6.1,1.5-8.9L-659.4-1085 M-574.9-1089.5
					c-0.9,0.2-1.8,0.4-2.5,0.6c-2.3,0.9-4.5,2.6-6.6,5.3c-2.2,2.8-3.7,6-4.7,9.6c-0.3,1.1-0.5,2.2-0.7,3.3c-0.1,0.5-0.1,1-0.1,1.5
					c-0.1,1-0.2,1.9-0.3,2.8c0,0.6,0,1.1,0,1.6c0.1,3.8,1,7.1,2.5,10c0.1,0.2,0.3,0.5,0.4,0.7c0.1,0.1,0.1,0.2,0.1,0.3
					c2.2,3.3,4.9,5,8.4,5c0,0,0.1,0,0.1,0c3.5,0,6.7-1.8,9.5-5.3c0.2-0.2,0.4-0.5,0.5-0.7c0.2-0.2,0.3-0.4,0.5-0.7
					c0.3-0.4,0.5-0.8,0.8-1.1c0.7-1.1,1.3-2.2,1.8-3.4c1.2-2.8,2-5.8,2.4-9.2c0.1-0.5,0.1-1,0.1-1.5c0.3-5-0.5-9.2-2.5-12.8
					c-0.5-1-1.1-1.9-1.8-2.7c0,0-0.1-0.1-0.2-0.1c-1.9-2.1-4.2-3.1-6.9-3.2C-574.2-1089.5-574.6-1089.5-574.9-1089.5 M-575.2-1084.1
					c0.2,0,0.5,0,0.7,0.1c0.4,0,0.8,0.1,1.1,0.2c1.8,0.5,3.4,1.9,4.5,4.1c1.4,2.6,2,5.6,1.8,9.1c0,0.5,0,0.9-0.1,1.3
					c-0.4,4.1-1.7,7.5-4,10.4c-0.9,1.2-1.9,2.2-2.9,2.9c0,0,0,0.1,0,0.1c-0.2,0.1-0.4,0.2-0.6,0.3c-0.2,0.2-0.5,0.3-0.8,0.4
					c-2.6,1-4.8,0.7-6.7-0.7c1.1,0.6,2.6,0.7,4.4,0.3c0.2,0,0.4-0.1,0.6-0.1c-0.2-0.1-0.4-0.2-0.6-0.3c-1.3-0.7-2.4-1.9-3.3-3.6
					c-0.3-0.6-0.6-1.2-0.8-1.8l-4-0.1c-0.1-0.5-0.3-0.9-0.4-1.4l3.9,0.2c-0.2-0.9-0.4-1.8-0.5-2.8l-3.8-0.1c0-0.4,0-0.9,0-1.4
					c0-0.7,0.1-1.5,0.1-2.3c0.1-0.4,0.1-0.9,0.2-1.3c0.4-2.1,1-4.1,1.8-5.9c0.5-1.1,1.2-2.1,1.9-3.1
					C-580.3-1082.6-577.9-1084.1-575.2-1084.1 M-600.7-1079.2c-1.6-1.7-3.5-2.6-5.7-2.5c-0.3,0-0.6,0-0.8,0c-0.7,0.2-1.4,0.3-2,0.5
					c-1.9,0.7-3.7,2.1-5.3,4.3c-1.7,2.3-2.9,4.9-3.7,7.8c-0.2,0.9-0.3,1.8-0.5,2.8c-0.1,0.4-0.1,0.8-0.1,1.2
					c-0.1,0.8-0.1,1.5-0.1,2.3c0,0.5,0,0.9,0,1.4c0.1,3.1,0.9,5.8,2.3,8.1c0.1,0.2,0.2,0.4,0.3,0.6c0.1,0.1,0.1,0.2,0.1,0.2
					c1.8,2.7,4.1,4.1,6.9,4.1c0,0,0.1,0,0.1,0c2.8,0,5.4-1.5,7.7-4.3c0.2-0.2,0.3-0.4,0.5-0.6c0.1-0.2,0.3-0.3,0.4-0.5
					c0.2-0.3,0.4-0.6,0.7-1c0.5-0.9,1-1.8,1.4-2.8c1-2.2,1.6-4.7,1.8-7.5c0.1-0.4,0.1-0.8,0.1-1.2c0.2-4.1-0.6-7.6-2.3-10.6
					c-0.5-0.8-1-1.5-1.5-2.1C-600.6-1079.1-600.6-1079.2-600.7-1079.2 M-606.8-1077.3c0.3,0,0.7,0.1,0.9,0.2
					c1.5,0.5,2.8,1.6,3.8,3.3c1.2,2.1,1.7,4.6,1.7,7.4c0,0.4,0,0.7,0,1.1c-0.3,3.3-1.3,6.2-3.1,8.5c-0.7,1-1.5,1.8-2.3,2.4
					c0,0,0,0,0,0.1c-0.1,0.1-0.3,0.1-0.4,0.2c-0.2,0.1-0.4,0.3-0.6,0.3c-2.1,0.8-3.9,0.6-5.5-0.5c0.9,0.5,2.1,0.6,3.5,0.3
					c0.2,0,0.3-0.1,0.5-0.1c-0.2-0.1-0.3-0.1-0.5-0.2c-1.1-0.6-2-1.6-2.8-3c-0.2-0.5-0.5-1-0.7-1.5l-3.3,0c-0.1-0.4-0.2-0.8-0.3-1.2
					l3.2,0.1c-0.2-0.7-0.3-1.4-0.4-2.2l-3.1-0.1c0-0.4,0-0.7,0-1.1c0-0.6,0-1.3,0.1-2c0-0.4,0.1-0.7,0.1-1.1
					c0.2-1.7,0.7-3.4,1.4-4.8c0.4-0.9,0.9-1.7,1.5-2.6c1.8-2.3,3.7-3.5,5.9-3.5C-607.1-1077.3-607-1077.3-606.8-1077.3
					 M-599.6-1102.1l-0.2,0c0,0,0,0,0,0l-7.8,4.8l0.7,4.4l10.6-5.3c-0.5-0.4-1-0.8-1.5-1.3l-0.8-0.8
					C-598.9-1100.9-599.2-1101.5-599.6-1102.1 M-593.2-1118c-1-2.7-1.6-6.8-1.7-12.3l-31.6,22.2c2.1,1.2,4,2.9,5.8,5.2
					c0.6,0.7,1.1,1.5,1.7,2.3c3.9-2.6,7.4-5,10.5-7.2C-601.9-1112.1-596.8-1115.6-593.2-1118 M-536.9-1169.4
					c-0.2-0.4-0.5-0.8-0.8-1.2l-5.8,4.1c0.5,0.7,1,1.4,1.4,2.1c3.1,5.1,4.8,11.1,5.3,17.8c0.1,1.3,0.2,2.6,0.2,3.9
					c0,1.1-0.1,2.1-0.1,3.2v0c0,0,0,0.1,0,0.1c-0.5,9.6-3.2,17.8-8,24.7c-2,2.9-4.2,5.2-6.5,6.8c0,0-0.1,0.1-0.2,0.1
					c-0.4,0.3-0.8,0.6-1.2,0.8c-0.5,0.4-1.1,0.7-1.7,1l0,0c-6.1,2.3-11.4,1.8-16-1.6c3,1.5,7,1.7,11.9,0.6c-0.5-0.2-1-0.5-1.5-0.8
					c-3.1-1.6-5.9-4.5-8.3-8.5c-0.8-1.4-1.6-2.8-2.2-4.3l-9.5-0.3c-0.4-1.1-0.7-2.3-1-3.5l9.3,0.3c-0.6-2-1.1-4.2-1.5-6.4l-9-0.3
					c-0.1-1-0.2-2.1-0.3-3.3c-0.1-1.6,0-3.3,0-5.1l-4.5,3.2c0,0.8,0,1.6,0,2.4c0.1,1.2,0.1,2.3,0.3,3.4c0.7,7.9,2.8,14.9,6.5,20.9
					c0.3,0.5,0.6,1,1,1.5c0.1,0.2,0.2,0.4,0.3,0.5c4.9,7,10.9,10.5,18,10.6c0.1,0,0.1,0,0.2,0c7.3-0.1,13.7-3.8,19.4-11.1
					c0.4-0.5,0.8-0.9,1.1-1.5c0.3-0.4,0.7-0.9,1-1.3c0.5-0.8,1-1.6,1.5-2.4c1.3-2.2,2.5-4.6,3.5-7.1c2.3-5.8,3.6-12.2,4-19.3v-0.1
					c0-1,0.1-2.1,0-3.1c0-1.4,0-2.8,0-4.2C-530.7-1155.2-532.9-1162.8-536.9-1169.4 M-540.6-1294.8c-0.6,0.1-1.2,0.2-1.8,0.3
					c-0.4,0.1-0.8,0.1-1.1,0.1h-0.3c-0.6,0.1-0.9,0.3-1,0.5c-0.1,0.2-0.2,0.4-0.3,0.5c0,0.2,0,0.3,0,0.4c0,0.1,0,0.1,0,0.2v0.1
					c0,0,0,0,0,0.1c0,0.1,0,0.2,0,0.3c0.1,0.3,0.2,0.6,0.3,0.8c0.1,0.2,0.1,0.5,0.2,0.7c0.1,0.5,0.3,1,0.5,1.5
					c0.4,0.4,0.8,0.8,1.3,1c0.5,0.3,0.9,0.5,1.4,0.8l1.5,0.4c0.2,0,0.3,0,0.5,0.1c0.3,0,0.6,0,1,0c0.1,0,0.3,0,0.4-0.1
					c0.2,0,0.4,0,0.5,0c0.6-0.1,1.3-0.3,1.8-0.5c0.6-0.2,1-0.4,1.2-0.7c0.3-0.2,0.4-0.4,0.5-0.5l0.3-0.8c0.2-0.5,0.4-1,0.6-1.6
					c0-0.1,0.1-0.3,0.1-0.4c0.1-0.3,0.2-0.6,0.3-0.8c0-0.3,0.1-0.7,0.2-1.3c0-0.2,0-0.3-0.2-0.4c-0.2-0.1-0.3-0.2-0.3-0.2
					c-0.1,0-0.2-0.1-0.3-0.1c-0.2-0.1-0.4-0.1-0.7-0.2c-0.2-0.1-0.4-0.1-0.7-0.2l0-0.1c0-0.1-0.1-0.2-0.1-0.4
					c-0.1-0.3-0.2-0.5-0.2-0.6c-0.1-0.2-0.1-0.4-0.2-0.7c-0.1-0.2-0.2-0.4-0.3-0.7c0-0.1,0-0.2,0-0.3c-0.5-0.1-1.1-0.2-1.7-0.2
					c0,0-0.1,0-0.2,0.1c0,0-0.1,0.1-0.1,0.1c-0.1,0.1-0.2,0.3-0.3,0.4c-0.1,0.2-0.2,0.4-0.4,0.6c-0.1,0.2-0.3,0.4-0.4,0.6
					c-0.1,0.1-0.2,0.3-0.3,0.4c0,0,0,0.1-0.1,0.1C-539.3-1295-539.9-1294.9-540.6-1294.8 M-548.5-1305.9c-0.1,0-0.1,0.1-0.3,0.1
					c-0.1,0.1-0.2,0.1-0.3,0.2c-0.2,0.1-0.3,0.2-0.5,0.3c-0.2,1.6-0.2,3-0.2,4.2v0.1c0.2,2,0.4,3,0.8,3.1c2,0.5,4.1,0.7,6.4,0.5
					c0.8,0,1.5-0.2,1.9-0.5l0.5-0.5c0,0,0.1-0.1,0.1-0.2l0.8-0.9c0.4-0.6,0.8-0.9,1.4-0.9c0.9,0.1,1.8,0.1,2.7,0.3h0
					c0.5,0,0.9,0.3,1.1,0.9v0l0.3,0.8c0,0,0.1,0.1,0.1,0.1l0.4,1.4c0,0.1,0.1,0.2,0.1,0.2c0.9,0.2,1.7,0.2,2.4,0.1
					c0.3-0.3,0.4-0.6,0.5-0.9l0,0c0.7-2.1,0.9-4,0.7-5.6c0-0.2-0.2-0.5-0.5-0.9C-535.7-1305.9-541.9-1306.5-548.5-1305.9
					 M-430.2-1222c0.3,1.9,0.5,3.7,0.5,5.4c0,1.4,0,2.7-0.2,4c0,0.1,0,0.2-0.1,0.3c-0.1,0.8-0.3,1.7-0.4,2.5
					c-0.1,0.4-0.2,0.8-0.4,1.2l-0.4,1.2l12.1,1.6c-0.1-0.7-0.1-1.4-0.2-2.1c-0.2-2-0.4-3.4-0.6-4.3l0,0c-0.1-0.6-0.2-1.1-0.3-1.7
					c-0.2-0.9-0.4-1.9-0.6-2.8c-0.7-2.7-1.6-5.3-2.6-7.9c-0.1-0.3-0.2-0.5-0.4-0.8L-430.2-1222 M-459.8-1169.8c0,0.1,0,0.2,0.1,0.3
					c0,0.1,0,0.1,0,0.2c0,0.1,0,0.2,0,0.3l-0.1,0.2c-0.1,0.4-0.3,0.7-0.5,0.9l-9.2,8.9c0.1,1.5,0.1,2.9,0.1,4.4l72.1,6.5
					c0.9-9.4-0.9-17-5.5-22.8h-0.1c-3.4-4-7.8-7.2-13.1-9.5c-2-0.8-4.1-1.6-6.3-2.2l-44.6-4.3c2.1,3.2,3.9,6.6,5.2,10.2
					c0.2,0.6,0.4,1.1,0.6,1.7C-460.7-1173.3-460.2-1171.6-459.8-1169.8 M-407.2-1152.4L-407.2-1152.4c-0.5-0.5-0.8-1.2-0.8-2
					c0-0.7,0.3-1.4,0.8-1.9c0.6-0.5,1.2-0.8,2-0.9c0.8,0,1.4,0.3,2,0.9l0,0c0.5,0.5,0.8,1.2,0.8,1.9c0,0.8-0.2,1.4-0.8,2v0
					c-0.5,0.5-1.2,0.8-2,0.8C-406-1151.5-406.6-1151.8-407.2-1152.4 M-424.1-1154.1c-0.5-0.5-0.8-1.2-0.9-2c0-0.8,0.3-1.4,0.9-1.9
					c0.5-0.5,1.2-0.8,1.9-0.8c0.8,0,1.4,0.3,2,0.8h0c0.6,0.5,0.8,1.2,0.8,1.9c0,0.8-0.3,1.4-0.8,2h0c-0.5,0.5-1.1,0.8-1.9,0.8
					C-422.9-1153.3-423.6-1153.6-424.1-1154.1 M-443-1159.9c0.6-0.5,1.2-0.8,2-0.8c0.8,0,1.4,0.3,1.9,0.8h0c0.6,0.6,0.8,1.2,0.9,2
					c0,0.8-0.3,1.4-0.8,1.9h0c-0.5,0.6-1.1,0.8-1.9,0.8c-0.7,0-1.4-0.3-2-0.8l0,0c-0.5-0.5-0.8-1.2-0.9-1.9
					C-443.8-1158.7-443.5-1159.4-443-1159.9 M-457.1-1159.9c0,0.8-0.3,1.4-0.8,2l0,0c-0.5,0.6-1.2,0.8-2,0.8c-0.7,0-1.4-0.3-1.9-0.8
					l0,0c-0.5-0.5-0.8-1.2-0.8-2c0-0.7,0.3-1.4,0.8-1.9c0.5-0.5,1.2-0.8,1.9-0.8c0.8,0,1.5,0.3,2,0.8
					C-457.4-1161.3-457.1-1160.7-457.1-1159.9 M-450.4-1211.3c-0.1,0.3-0.2,0.6-0.3,0.9l-0.1,0.4l14.4,1.8c0,0,0-0.1,0-0.1
					c0.1-0.2,0.2-0.4,0.2-0.6l0.1-0.4c0-0.1,0-0.1,0.1-0.2c0.2-0.5,0.3-0.9,0.4-1.2l-0.1,0c0.2-0.7,0.3-1.4,0.4-2v-0.1
					c0.2-1.2,0.3-2.3,0.3-3.6c0-1-0.1-2-0.1-3.1L-450.4-1211.3 M-512.3-1201.8c-0.2,0-0.4,0-0.6,0c-3.2-0.2-6.5-0.4-9.8-0.7
					c-2.2-0.2-4.5-0.3-6.8-0.5c-2-0.1-4.1-0.3-6.2-0.4c-2.3,0.7-4.6,1.4-6.9,2.2c-4.5,1.6-9.1,3.4-13.8,5.5
					c-11.5,5.2-23.5,12.1-35.9,20.7c-2.3,1.6-4.6,3.3-7,5c3.1-1.7,6.2-3.4,9.2-5c18.2-9.7,32.9-16.5,44.1-20.3
					c2.7-0.9,5.1-1.6,7.3-2.1c1.9,0.7,3.6,1.7,5.2,2.8c5.1,3.9,9,10.1,11.5,18.8l55.9,4.8c-0.5-1.7-1-3-1.4-4.2
					c-0.3-0.8-0.6-1.6-1-2.4c-1.2-2.7-2.7-5.2-4.4-7.7l0,0c-0.7-1-1.5-2-2.3-3c-0.9-1.1-2-2.2-3-3.2c-1.2-1.2-2.5-2.2-4-3.3
					c-0.9-0.7-1.9-1.3-2.9-1.9c-1-0.4-2-0.8-3.1-1.2c-3.3-1.1-7.2-2.1-11.6-2.8c-3.2-0.5-6.6-0.9-10.4-1.2
					C-510.8-1201.7-511.6-1201.8-512.3-1201.8 M-504.3-1206.9L-504.3-1206.9c1.6,0.2,3.2,0.4,4.7,0.6c6.4,1,11.5,2.3,15.3,4
					c0.1,0,0.2,0.1,0.3,0.1c2,1,3.9,2,5.7,3.2c1,0.6,2,1.3,2.8,2c1.2,0.9,2.3,1.9,3.3,3c0.1,0.1,0.1,0.1,0.2,0.2
					c0.1,0.2,0.3,0.3,0.4,0.4c0,0,0,0,0,0.1l0,0l49.6,5.1l3.6-4.5v0.1c1.1-1.5,2.6-2.2,4.3-2.2l6.8,0.2l-0.2-4.7l-113.3-13.8
					l-0.1,4.8c1.7,0.1,3.1,0.2,4.5,0.3c1.6,0.1,2.9,0.2,4,0.3h0c0,0,0.1,0,0.1,0h0C-509.4-1207.5-506.8-1207.2-504.3-1206.9
					 M-499.7-1246.4c0.9-0.3,1.8-0.6,2.7-0.6l45,6.3l10.1-7.1c-0.5-0.3-0.9-0.7-1.4-1l-81.8-11.8c-1.8-0.1-2.8,0.4-3.2,1.6
					c-0.1,0.4-0.1,0.8-0.1,1.3c2.2,5.4,4.2,11.6,6,18.5c0.2,0.6,0.3,1.3,0.5,1.9c0.4,1.8,0.8,3.6,1.1,5.5c0.2,1.1,0.4,2.1,0.6,3.2
					c0.2,1.4,0.4,2.8,0.5,4.1c0,0.2,0.1,0.4,0.1,0.6c0.2,1.8,0.3,3.6,0.5,5.4h0.2l19.6,2.5h0.1c0-0.2,0-0.3,0-0.5
					c0-2.6,0-4.9-0.1-6.8c-0.1-1-0.2-2.2-0.3-3.5c-0.1-1.5-0.3-3.2-0.6-5c-0.5-3.2-1.4-7.2-2.8-11.9
					C-502.1-1245-501-1245.9-499.7-1246.4 M-513.5-1252.5c0,0.1,0,0.1,0,0.2c0,0.7-0.3,1.3-0.7,1.8c-0.3,0.3-0.6,0.6-1,0.7
					c-0.2,0.1-0.4,0.1-0.7,0.1c-0.7,0-1.3-0.2-1.8-0.8c-0.5-0.5-0.8-1.2-0.8-1.9c0-0.7,0.2-1.4,0.7-2c0.5-0.5,1-0.8,1.7-0.8
					c0.7,0,1.3,0.3,1.8,0.8C-513.8-1253.9-513.5-1253.3-513.5-1252.5 M-513.5-1240.4c0.4-0.4,0.9-0.6,1.4-0.6c0.6,0,1.1,0.2,1.6,0.6
					l0,0c0.1,0.1,0.2,0.2,0.2,0.3c0.5,0.5,0.8,1.2,0.8,1.9c0,0.8-0.2,1.5-0.6,2h0c-0.4,0.4-0.8,0.7-1.4,0.8c-0.1,0-0.2,0-0.4,0
					c-0.7,0-1.2-0.2-1.8-0.8c-0.5-0.5-0.7-1.1-0.8-1.8c0,0,0-0.1,0-0.1c0-0.7,0.2-1.4,0.7-2
					C-513.7-1240.2-513.6-1240.3-513.5-1240.4 M-511.8-1224.6c0.2-0.2,0.4-0.4,0.6-0.5c0.4-0.2,0.7-0.3,1.1-0.3
					c0.7,0,1.3,0.2,1.8,0.8c0.5,0.5,0.8,1.2,0.8,1.9c0,0.8-0.2,1.4-0.6,2c-0.5,0.5-1,0.8-1.8,0.8c-0.4,0-0.8-0.1-1.1-0.3
					c-0.1-0.1-0.2-0.2-0.4-0.3c-0.1-0.1-0.1-0.2-0.2-0.3c-0.2-0.2-0.4-0.4-0.5-0.7c-0.2-0.4-0.3-0.8-0.3-1.3
					C-512.5-1223.3-512.3-1224-511.8-1224.6 M-464.8-1232l7-4.8l-34.1-4.6l0,0c-0.2,0-0.4,0.1-0.6,0.3c3,4,4.6,8,4.9,11.9
					c0.3,4.8-0.5,9.2-2.6,13.2c-0.2,0.3-0.4,0.7-0.5,1l19.4,2.3C-468-1224.3-465.7-1230.7-464.8-1232 M-525.3-1266.9L-525.3-1266.9
					l-0.7-3.8c-0.2-2.7-0.3-5-0.2-7c-1.4-0.7-2.8-1.2-4.3-1.5l-1.5,2.9c-1.9,1.6-4.2,2.4-6.8,2.4c-2.4,0-4.8-0.4-7.1-1.3
					c-1.6-0.6-3.2-1.5-4.6-2.5c-0.6-0.4-1.2-0.9-1.9-1.5c-0.7-0.6-1.3-1.3-2-2c-0.2-0.2-0.3-0.5-0.5-0.7l-5.7,0.8
					c1.1,3,1.7,5.4,1.9,7.2c0.2,1.8,0.4,3.5,0.7,5.2c0.2,1.6,0.3,4.2,0.1,7.7l-4.6-2.8c2.3,3.7,4,6.4,5,8.2c1.3-0.7,2-1.1,2.3-1.3
					c1.9-0.9,3.8-1.9,5.7-2.8c2.1-1,4.2-2.1,6.3-3.1c1.2-0.6,2.3-1.1,3.5-1.7C-535-1266.4-530.2-1267.2-525.3-1266.9L-525.3-1266.9
					 M-398.2-1269.5c-0.1-1-0.1-1.9,0-2.9l-60.5,41.9c0,0,0,0.1-0.1,0.1c-0.6,0.4-1.2,0.8-1.7,1.4c-0.9,1.1-1.5,2.3-1.8,3.7
					c0,0.2-0.1,0.4-0.1,0.6c0,0.5,0,0.9,0,1.4c0.1,0.9,0.2,1.7,0.5,2.5c0.1,0.2,0.1,0.3,0.1,0.5l66-40.2v0c-0.8-1.5-1.5-3-1.9-4.7
					C-397.8-1266.5-398.1-1267.9-398.2-1269.5L-398.2-1269.5 M-349.3-1135.9c0-0.8,0-1.6,0-2.4v-0.1c0-0.3,0-0.7,0-1
					c-0.1-2.2-0.2-4.4-0.5-6.5l-38.8-3.5c0.2,3.4,0.3,6.7,0.2,10c0,0.2,0,0.3-0.1,0.5c-0.3,10.2-1.7,20.3-4.1,30.2
					c-0.2,0.8-0.4,1.7-0.6,2.5c-2,8.2-4.8,16.1-8.5,23.7c-0.3,0.8-0.7,1.5-1.1,2.3c-3.6,7.4-8,14.2-13.3,20.4l-5.9,6.3l-5.8,5.3
					h37.8c4.2-2.7,8-5.7,11.5-9.1l-12.7-0.2c-0.2,0-0.5-0.1-0.6-0.3c-0.2-0.2-0.3-0.4-0.4-0.7c0-0.3,0.1-0.5,0.3-0.8
					c0.4-0.4,0.7-0.8,1.1-1.1v-0.1c0,0,0.1-0.1,0.1-0.1c0.8-1,1.7-2,2.4-3c0.1-0.1,0.2-0.2,0.4-0.3c0.1,0,0.3-0.1,0.5,0l14,0.2
					c0.2,0,0.4,0.1,0.6,0.3c2.4-2.9,4.6-6,6.6-9.3c1.1-1.8,2.1-3.6,3.1-5.5l0.7-1.4l-13.7-0.6c-0.2,0-0.4-0.1-0.6-0.3h0
					c-0.2-0.1-0.3-0.3-0.3-0.5c0-0.2,0-0.4,0.1-0.7c0.5-0.9,0.9-1.8,1.4-2.7v0c0.1-0.1,0.1-0.2,0.1-0.3l0,0c0-0.1,0.1-0.3,0.1-0.4
					l0,0c0.2-0.3,0.3-0.6,0.4-0.8c0.1-0.2,0.2-0.3,0.4-0.4c0.2-0.1,0.4-0.2,0.6-0.2l14.3,0.7c0.1,0,0.2,0,0.3,0.1
					c2.5-5.7,4.5-11.6,6.1-17.7l-13.8-0.8c-0.2,0-0.4-0.1-0.5-0.2c-0.1-0.1-0.3-0.3-0.4-0.5h0c-0.1-0.2-0.1-0.4,0-0.5
					c0.3-1.1,0.6-2.3,0.9-3.4c0,0,0,0,0-0.1c0.1-0.3,0.2-0.6,0.3-0.9c0.1-0.2,0.2-0.4,0.4-0.6c0.2-0.1,0.4-0.2,0.6-0.2l13.9,0.8
					c0.1,0,0.1,0,0.1,0c1.3-6.5,2.1-13,2.4-19.6l-12.9-0.8c-0.3,0-0.5-0.1-0.6-0.3c-0.2-0.2-0.3-0.5-0.3-0.8c0.1-1.3,0.2-2.7,0.3-4
					l0,0c0-0.1,0-0.3,0.1-0.5c0-0.2,0.1-0.5,0.3-0.6c0.2-0.1,0.5-0.2,0.7-0.2L-349.3-1135.9 M-354.8-1180.4c-2.4-1.7-5-3.1-7.8-3.9
					c-10.2-2.3-23.9-3.8-41.4-4.6c-0.2,0-0.5,0-0.8,0h-0.2c0,0,0,0-0.1,0c-0.2,0-0.3,0-0.5-0.1c0.2,0.1,0.4,0.2,0.5,0.3
					c0.3,0.1,0.6,0.2,0.8,0.3c4.8,2.1,8.8,4.8,11.9,8c4.6,4.7,7.5,10.4,8.5,17.3l44.9,4.3c-1.6-3.5-3.4-6.9-5.5-10.2
					C-347.4-1173.9-350.9-1177.7-354.8-1180.4 M-328.1-1300.7c-0.8-1.1-1.6-2.2-2.6-3.3c-4.1-4.4-9.3-6.8-15.3-7.1
					c-4.9-0.2-9.3,0.9-13.3,3.3l-4.9,3.7c-7.1,5.6-13.9,11.2-20.4,16.8l-5.9,5.1c-0.1,0.1-0.2,0.3-0.4,0.4c-1.1,1.3-2,2.6-2.6,3.9
					c-0.4,0.8-0.7,1.6-0.9,2.4c0,0,0,0.1,0,0v0.1v0.1v0h0c-0.2,0.8-0.4,1.7-0.5,2.6c-0.1,1-0.1,2-0.1,3.1l0,0
					c0.1,1.1,0.2,2.1,0.4,3.2l24.2-16.6c-0.2-2.6,0.5-5.4,2-8.3c0,0.3,0,1.2,0,2.7c0.1,1.5,0.3,3,0.6,4.6l-0.1,0.1
					c0.6,2.1,1.5,4.2,2.7,6c0.8,1.2,1.7,2.3,2.6,3.4c0.9,1,1.9,1.9,2.9,2.7c0.2,0.1,0.3,0.2,0.5,0.4c0.2,0.2,0.5,0.3,0.7,0.5
					c0.1,0,0.1,0,0.1,0c3.2,2.2,6.9,3.3,11.1,3.5c2.8,0.2,5.5-0.2,7.9-1c0,0,0.1,0,0.1,0c0,0,0,0,0,0h0.1c2.8-1,5.3-2.5,7.6-4.7
					c4.4-4,6.7-9,6.8-15C-324.5-1292.8-325.7-1297-328.1-1300.7L-328.1-1300.7 M-333.7-1302.9c-0.2-0.1-0.5-0.2-0.7-0.3
					c-1.9-0.8-3.4-1.1-4.4-0.9l-19.9,18.3c0.6,2,1.5,3.8,3,5.3l27-15.5c0.9,1.1,1.4,2.9,1.4,5.3c0,0.5,0,0.7,0,0.5l-25.8,12.1
					c1,0.7,2.1,1.3,3.3,1.8l20.8-6.2c-0.3,1.6-1.6,3.5-3.9,5.6c-3.6,3.3-7.8,4.9-12.8,4.7h-0.1c-2.8-0.1-5.3-0.8-7.6-2v-0.1
					c-1.5-0.8-2.8-1.8-4.1-3l0,0c-0.2-0.2-0.5-0.5-0.7-0.8l0,0c-0.7-0.8-1.4-1.6-2-2.5c0,0,0-0.1,0-0.1c0,0-0.1,0-0.1-0.1
					c-1-1.6-1.7-3.2-2.1-5v0c-0.4-1.6-0.6-3.2-0.6-5c0.2-4.9,2-9,5.6-12.3c3.6-3.3,7.9-4.8,12.8-4.7c1.8,0.1,3.4,0.4,5,0.9
					c0.4,0.1,0.8,0.3,1.1,0.5C-336.5-1305.4-334.9-1304.2-333.7-1302.9z"/>
			</g>
		</g>
	</g>
	<g transform="matrix( 1, 0, 0, 1, 0,0) ">
		<g>
			<g id="Layer0_0_FILL">
				<path class="st2" d="M-417.1-1031.5h-7c-0.7,0-1,0.3-1,1v40.4c0,1-0.5,1.6-1.6,1.5h-5.8c-1.1,0-1.6-0.5-1.6-1.5v-40.4
					c0-0.7-0.3-1-1-1h-6.9c-0.7,0-1,0.3-1.1,1v40.4c0,2.8,1.1,5.2,3.2,7.1c2.1,2,4.5,3,7.4,3h5.8c2.9,0,5.3-1,7.4-3
					c2.1-2,3.1-4.4,3.1-7.1v-40.4C-416.2-1031.1-416.5-1031.5-417.1-1031.5 M-404.5-1028.5c-2.1,1.9-3.1,4.3-3.1,7.1v40.5
					c0,0.7,0.3,1,1,1h7c0.6,0,1-0.3,0.9-1v-40.4c0-1,0.6-1.5,1.7-1.5h5.8c1.1,0,1.6,0.5,1.6,1.5v40.4c0,0.7,0.3,1,1,1h6.9
					c0.6,0,1-0.3,1-1v-40.5c0-2.8-1-5.2-3-7.1c-2.1-2-4.6-3-7.5-3h-5.8C-399.9-1031.5-402.4-1030.5-404.5-1028.5 M-490.1-1028.5
					c-2.1-2-4.5-3-7.5-3H-513c-0.7,0-1,0.3-1,1v49.4c0,0.7,0.3,1.1,1,1.1h6.9c0.7,0,1.1-0.4,1.1-1.1v-15.1c0-0.3,0.1-0.5,0.4-0.7
					c0.3-0.1,0.6-0.1,0.8,0.1l5.5,3.7c1.5,1.1,2.3,2.4,2.3,4.1v8c0,0.7,0.3,1,1,1h6.9c0.7,0,1-0.3,1-1v-8c0-4.6-2-8.3-6-11.1
					l-1.1-0.7c-0.2-0.1-0.3-0.3-0.3-0.6c0-0.3,0.1-0.5,0.4-0.6c2.1-0.7,3.8-1.9,5.1-3.7c1.3-1.7,1.9-3.7,1.9-5.8v-10
					C-487-1024.2-488.1-1026.6-490.1-1028.5 M-497.6-1023c1.1,0,1.6,0.5,1.6,1.5v10c0,1-0.5,1.4-1.6,1.5h-6.4c-0.7,0-1-0.3-1-1v-11
					c0-0.7,0.3-1,1-1H-497.6 M-462.2-1031.5h-5.8c-2.9,0-5.4,1-7.5,3c-2.1,2-3.1,4.3-3.1,7.1v31.4c0,2.8,1.1,5.2,3.1,7.1
					c2.1,2,4.6,3,7.5,3h5.8c2.9,0,5.4-1,7.4-3c2.1-2,3.1-4.4,3.1-7.1v-31.4c0-2.8-1-5.1-3.1-7.1
					C-456.8-1030.5-459.3-1031.5-462.2-1031.5 M-467.9-1022.9h5.8c1.1,0,1.6,0.5,1.6,1.5v31.4c0,1-0.5,1.6-1.6,1.5h-5.8
					c-1.1,0-1.6-0.5-1.7-1.5v-31.4C-469.6-1022.4-469-1022.9-467.9-1022.9 M-540.5-1021.4c0-1,0.6-1.5,1.6-1.5h5.8
					c1.1,0,1.6,0.5,1.6,1.5v6.1c0,0.7,0.4,1,1,1h6.9c0.7,0,1-0.3,1-1v-6.2c0-2.8-1-5.1-3.1-7.1c-2.1-2-4.5-3-7.4-3h-5.8
					c-2.9,0-5.3,1-7.4,3c-2.1,2-3.2,4.3-3.2,7.1v31.4c0,2.8,1.1,5.2,3.2,7.1c2.1,2,4.5,3,7.4,3h5.8c2.9,0,5.3-1,7.4-3
					c2.1-2,3.1-4.4,3.1-7.1v-14.6c0-0.6-0.3-1-1-1h-11.3c-0.7,0-1,0.4-1,1v6.6c0,0.6,0.4,1,1,0.9h2.4c0.6,0,1,0.4,1,1.1v6
					c0,1-0.5,1.6-1.6,1.5c-1.9,0-3.9,0-5.8,0c-1.1,0-1.6-0.5-1.6-1.5V-1021.4 M-566.1-1031.6c-0.7,0-1,0.4-1,1.1v40.4
					c0,1-0.5,1.6-1.5,1.5h-5.9c-1,0-1.5-0.5-1.5-1.5v-40.5c0-0.7-0.3-1.1-1-1.1h-7c-0.6,0-1,0.4-1,1.1v40.5c0,1-0.5,1.5-1.6,1.5
					h-5.8c-1,0-1.5-0.5-1.5-1.5v-40.4c0-0.7-0.4-1.1-1.1-1.1h-7c-0.7,0-1,0.4-1,1.1v40.4c0,2.8,1.1,5.2,3.2,7.1c2.1,2,4.5,3,7.4,3
					h5.8c1.8,0,3.5-0.5,5.2-1.4c0.6-0.3,1.2-0.3,1.8,0c1.6,0.9,3.3,1.4,5.1,1.4h5.9c2.9,0,5.3-1,7.4-3c2.1-2,3.2-4.4,3.1-7.1v-40.4
					c0-0.7-0.3-1.1-1-1.1H-566.1 M-647.2-1021.4c0-2.8-1-5.2-3-7.1c-2.1-2-4.6-3-7.5-3h-5.8c-2.9,0-5.4,1-7.5,3
					c-2,1.9-3.1,4.3-3.1,7.1v40.5c0,0.7,0.4,1,1.1,1h6.9c0.6,0,1-0.3,1-1v-40.4c0-1,0.5-1.5,1.6-1.5h5.8c1.1,0,1.6,0.5,1.6,1.5v40.4
					c0,0.7,0.4,1,1,1h7c0.6,0,1-0.3,1-1V-1021.4 M-635.6-1028.5c-2.1,1.9-3.1,4.3-3.1,7.1v31.4c0,2.8,1,5.2,3.1,7.1
					c2.1,2,4.6,3,7.5,3h15.3c0.6,0,1-0.3,1-1v-6.5c0-0.7-0.3-1-1-1h-15.3c-1.1,0-1.6-0.5-1.7-1.5v-10.4c0-0.6,0.4-1,1-1h16
					c0.6,0,1-0.3,1-1v-6.6c0-0.6-0.3-1-1-1h-16c-0.7,0-1-0.3-1-1v-10.5c0-1,0.6-1.5,1.7-1.5h15.3c0.6,0,1-0.3,1-1v-6.5
					c0-0.7-0.3-1-1-1h-15.3C-631-1031.5-633.5-1030.5-635.6-1028.5 M-348.4-1028.5c-2-2-4.5-3-7.4-3h-15.4c-0.7,0-1,0.3-1,1v49.5
					c0,0.7,0.3,1,1,1h15.4c2.9,0,5.4-1,7.4-3c2.1-2,3.1-4.4,3.1-7.1v-31.4C-345.3-1024.2-346.3-1026.6-348.4-1028.5 M-355.8-1022.9
					c1.1,0,1.6,0.5,1.6,1.5v31.3c0,1-0.5,1.6-1.6,1.5h-6.4c-0.7,0-1-0.4-1-1v-32.3c0-0.7,0.3-1,1-1H-355.8 M-310.7-1031.5h-15.4
					c-2.9,0-5.4,1-7.5,3c-2.1,2-3.2,4.3-3.1,7.1v10c0,2.8,1,5.1,3.1,7c2.1,2,4.6,3.1,7.5,3.1h5.9c1,0,1.5,0.5,1.5,1.5v9.8
					c0,1-0.5,1.6-1.5,1.5h-15.4c-0.7,0-1.1,0.3-1.1,1v6.5c0,0.7,0.4,1,1.1,1h15.4c2.9,0,5.3-1,7.4-3c2.1-2,3.1-4.4,3.1-7.1v-9.8
					c0-2.8-1-5.2-3-7.2c-2.1-2-4.6-3-7.5-3h-5.9c-1.1,0-1.6-0.5-1.6-1.5c0-3.3,0-6.7,0-10c0-1,0.6-1.5,1.6-1.5h15.4c0.6,0,1-0.3,1-1
					v-6.6C-309.7-1031.1-310-1031.5-310.7-1031.5z"/>
			</g>
		</g>
	</g>
</g>
</svg>
